<svg width="32" height="32" viewBox="0 0 32 32" fill="none" xmlns="http://www.w3.org/2000/svg">
<path d="M7.61905 0C3.41994 0 0 3.41994 0 7.61905V24.381C0 28.5801 3.41994 32 7.61905 32H24.381C28.5801 32 32 28.5801 32 24.381V7.61905C32 3.41994 28.5801 0 24.381 0H7.61905ZM7.61905 1.52381H24.381C27.7567 1.52381 30.4762 4.2433 30.4762 7.61905V24.381C30.4762 27.7567 27.7567 30.4762 24.381 30.4762H7.61905C4.2433 30.4762 1.52381 27.7567 1.52381 24.381V7.61905C1.52381 4.2433 4.2433 1.52381 7.61905 1.52381ZM14.1503 6.02083C13.8574 6.0021 13.555 6.06676 13.2827 6.22619C12.5566 6.6521 12.3137 7.5864 12.7396 8.3125L14.119 10.6667L9.6503 18.2932H6.09524C5.2541 18.2932 4.57143 18.9758 4.57143 19.817C4.57143 20.6581 5.2541 21.3408 6.09524 21.3408H17.8378C17.9574 20.7594 17.8843 20.129 17.5491 19.5461L17.5461 19.5432C17.2513 19.0296 16.8423 18.6101 16.3661 18.2932H13.183L19.0312 8.31101C19.4564 7.58492 19.2127 6.65133 18.4866 6.22619C17.7598 5.80105 16.8269 6.04474 16.4018 6.77083L15.8854 7.65179L15.369 6.77083C15.1029 6.31702 14.6384 6.05206 14.1503 6.02083ZM18.5223 12.1533L17.8929 13.1994C17.198 14.3545 17.1756 15.7841 17.811 16.9643L22.6086 25.1518C22.8921 25.6364 23.4007 25.9048 23.9241 25.9048C24.1854 25.9048 24.4512 25.8381 24.6935 25.6964C25.4195 25.2713 25.6625 24.3377 25.2366 23.6116L23.9062 21.3408H25.9048C26.7459 21.3408 27.4286 20.6581 27.4286 19.817C27.4286 18.9758 26.7459 18.2932 25.9048 18.2932H22.1205L18.5223 12.1533ZM8.09524 22.8676C7.67086 22.8554 7.25845 22.9212 6.86607 23.0446L6.52679 23.622C6.10088 24.3474 6.34533 25.2817 7.07143 25.7068C7.31371 25.8493 7.57795 25.9167 7.83928 25.9167C8.36271 25.9167 8.87206 25.646 9.15625 25.1622L9.97619 23.7634C9.53048 23.243 8.87913 22.8904 8.0997 22.8676H8.09524Z" fill="white"/>
</svg>
