<svg width="31" height="35" viewBox="0 0 31 35" fill="none" xmlns="http://www.w3.org/2000/svg">
<path d="M1.36237 0.0156799C1.35341 0.0186513 1.34743 0.0364816 1.33847 0.0394531C1.31755 0.0424246 1.28768 0.0335102 1.26676 0.0394531C1.10543 0.0572834 0.956048 0.122659 0.836542 0.229639C0.322666 0.508975 0 1.0825 0 1.70358V33.4884C0 33.9609 0.209136 34.4572 0.59753 34.7484C0.776789 34.9475 1.04867 35.0366 1.31457 34.9861C1.66412 35.0039 2.0316 34.9267 2.34232 34.7484C2.99064 34.374 16.2289 26.7606 16.2289 26.7606L23.1364 22.7904C23.1513 22.7845 23.1692 22.7756 23.1842 22.7667L23.2798 22.7191C23.2798 22.7191 23.3724 22.6716 23.3754 22.6716C23.3843 22.6627 23.3903 22.6567 23.3993 22.6478C23.6054 22.5289 29.264 19.2898 30.0438 18.8441C30.5816 18.535 31.0088 18.0328 30.9999 17.4177C30.9909 16.8026 30.5547 16.3241 30.0677 16.0626C29.7988 15.92 28.054 14.9274 26.4347 13.9943C24.8154 13.0612 23.2798 12.1638 23.2798 12.1638L16.2289 8.12235C16.2289 8.12235 3.40891 0.758594 2.65303 0.324732C2.38713 0.173177 2.08538 0.0513397 1.79259 0.0156799C1.6462 -0.00214969 1.50578 -0.00809338 1.36237 0.0156799ZM1.52968 2.06018L17.1133 17.4415L1.52968 32.8227V2.06018ZM5.16266 3.51035C9.05258 5.74503 15.4641 9.42988 15.4641 9.42988L21.6306 12.9721L18.1888 16.3717L5.16266 3.51035ZM22.993 13.7566C23.3604 13.9706 24.2956 14.5114 25.6699 15.3019C27.2892 16.235 28.9503 17.18 29.3507 17.3939C29.3895 17.4147 29.3776 17.4266 29.3985 17.4415C29.3686 17.4623 29.3596 17.4682 29.279 17.5128C28.544 17.9348 23.7787 20.6865 23.0169 21.1263L19.2644 17.4415L22.993 13.7566ZM18.1888 18.4875L21.6545 21.9108L15.4641 25.453C15.4641 25.453 9.21989 29.0369 5.18656 31.3488L18.1888 18.4875Z" fill="white"/>
</svg>
