<svg width="32" height="32" viewBox="0 0 32 32" fill="none" xmlns="http://www.w3.org/2000/svg">
<path d="M12.0777 2.86476L0.649143 4.57909C0.27581 4.63548 0 4.95548 0 5.33264V14.4757C0 14.8971 0.341333 15.2377 0.761905 15.2377H12.1905C12.611 15.2377 12.9524 14.8971 12.9524 14.4757V3.61831C12.9524 3.39659 12.8556 3.1863 12.6872 3.04077C12.5196 2.89676 12.2964 2.83429 12.0777 2.86476ZM31.7349 0.18355C31.5672 0.0395463 31.3448 -0.0229315 31.1246 0.00754547L15.1246 2.40761C14.752 2.46399 14.4762 2.784 14.4762 3.16115V14.4757C14.4762 14.8971 14.8175 15.2377 15.2381 15.2377H31.2381C31.6587 15.2377 32 14.8971 32 14.4757V0.761089C32 0.539369 31.9032 0.329078 31.7349 0.18355ZM12.1905 16.7615H0.761905C0.341333 16.7615 0 17.1021 0 17.5234V26.6665C0 27.0437 0.27581 27.3637 0.649143 27.4201L12.0777 29.1344C12.1158 29.1397 12.1531 29.1428 12.1905 29.1428C12.3718 29.1428 12.5486 29.078 12.6872 28.9584C12.8556 28.8129 12.9524 28.6026 12.9524 28.3809V17.5234C12.9524 17.1021 12.611 16.7615 12.1905 16.7615ZM31.2381 16.7615H15.2381C14.8175 16.7615 14.4762 17.1021 14.4762 17.5234V28.838C14.4762 29.2152 14.752 29.5352 15.1253 29.5916L31.1253 31.9916C31.1627 31.997 31.2008 32 31.2381 32C31.4194 32 31.5962 31.9352 31.7349 31.8156C31.9032 31.6701 32 31.4598 32 31.2381V17.5234C32 17.1021 31.6587 16.7615 31.2381 16.7615Z" fill="white"/>
</svg>
