<svg width="32" height="33" viewBox="0 0 32 33" fill="none" xmlns="http://www.w3.org/2000/svg">
<path d="M29.0833 12.5714H25.1547V2.88098C25.1547 1.29277 23.6362 0 22.0438 0H8.94806C8.7087 0 8.53841 0.108975 8.3897 0.295922L6.30444 2.93123L0.402673 10.2441C0.322006 10.3442 0.275364 10.4609 0.250236 10.5815L0.071109 10.8083C-0.0394302 10.9471 0.0119031 11.1194 0.0119031 11.2975V30.119C0.0119031 31.7072 1.07782 33 2.6629 33H22.0439C23.6362 33 25.1548 31.7072 25.1548 30.119V23.0476H29.0833C30.6741 23.0476 31.9643 21.7575 31.9643 20.1667V15.4524C31.9643 13.8616 30.6741 12.5714 29.0833 12.5714ZM30.3928 20.1667C30.3928 20.8901 29.8067 21.4762 29.0833 21.4762H19.1309C18.4076 21.4762 17.8214 20.8901 17.8214 20.1667V15.4524C17.8214 14.729 18.4076 14.1428 19.1309 14.1428H29.0833C29.8067 14.1428 30.3928 14.729 30.3928 15.4524V20.1667ZM8.39283 3.12292V8.3909C8.39283 9.12056 7.36406 9.95236 6.65795 9.95236H2.83782L4.9687 7.20025L8.39283 3.12292ZM23.5833 30.119C23.5833 30.8414 22.7693 31.4286 22.0438 31.4286H2.6629C1.94424 31.4286 1.58334 30.8413 1.58334 30.119V11.573L1.62157 11.5238H6.65801C8.24255 11.5238 9.96426 10.0016 9.96426 8.3909V1.57144H22.0438C22.7693 1.57144 23.5833 2.15864 23.5833 2.88098V12.5714H19.1309C17.5401 12.5714 16.25 13.8616 16.25 15.4524V20.1667C16.25 21.7575 17.5401 23.0476 19.1309 23.0476H23.5833V30.119Z" fill="white"/>
<path d="M20.9565 17.1316C20.9104 17.0112 20.8727 16.9137 20.8428 16.8409C20.813 16.7697 20.7764 16.7011 20.7323 16.6387C20.6893 16.5748 20.6323 16.524 20.5616 16.4832C20.4908 16.4434 20.4023 16.4235 20.297 16.4235C20.1923 16.4235 20.1053 16.4434 20.0346 16.4832C19.9639 16.524 19.9068 16.5758 19.8628 16.6403C19.8198 16.7058 19.779 16.7869 19.7402 16.8849C19.7026 16.9834 19.6695 17.0672 19.6418 17.1368L18.6826 19.5716C18.6433 19.669 18.6161 19.7444 18.5983 19.7999C18.581 19.8539 18.5726 19.9073 18.5726 19.9581C18.5726 20.0461 18.6098 20.1263 18.6826 20.1959C18.756 20.2661 18.8408 20.3012 18.9361 20.3012C19.0488 20.3012 19.1294 20.2682 19.1792 20.2017C19.2284 20.1362 19.2882 20.0105 19.3578 19.8225L19.5369 19.3416H21.0612L21.2403 19.812C21.2645 19.8701 21.2932 19.9367 21.3258 20.0126C21.3598 20.0891 21.3901 20.1457 21.4195 20.1813C21.4488 20.2185 21.4844 20.2478 21.5268 20.2682C21.5693 20.2897 21.6206 20.3012 21.6803 20.3012C21.7825 20.3012 21.87 20.264 21.9428 20.1917C22.0151 20.1199 22.0512 20.0403 22.0512 19.9534C22.0512 19.8696 22.013 19.7355 21.936 19.5511L20.9565 17.1316ZM19.7365 18.7717L20.2918 17.2239L20.857 18.7717H19.7365Z" fill="white"/>
<path d="M25.1284 16.7671C25.0168 16.6676 24.8844 16.5974 24.7308 16.5539C24.5758 16.51 24.3543 16.4879 24.0661 16.4879H23.0914C22.9247 16.4879 22.8027 16.5236 22.7257 16.5953C22.6493 16.6665 22.611 16.7865 22.611 16.953V19.8435C22.611 19.9938 22.6456 20.1075 22.7158 20.185C22.7859 20.263 22.8776 20.3018 22.9918 20.3018C23.1008 20.3018 23.1914 20.262 23.2631 20.1839C23.3343 20.1054 23.3705 19.9907 23.3705 19.8382V18.7775H24.0661C24.5312 18.7775 24.8817 18.6779 25.1174 18.4816C25.3526 18.2841 25.4704 17.9955 25.4704 17.6131C25.4704 17.434 25.4416 17.2737 25.383 17.1302C25.3249 16.9871 25.2405 16.8651 25.1284 16.7671ZM24.6057 17.964C24.5423 18.0488 24.4511 18.1101 24.3306 18.1479C24.2107 18.185 24.0609 18.2045 23.8817 18.2045H23.3706V17.0584H23.8817C24.2212 17.0584 24.4448 17.1139 24.5544 17.2244C24.6518 17.3287 24.7005 17.4638 24.7005 17.6282C24.7004 17.7666 24.669 17.8782 24.6057 17.964Z" fill="white"/>
<path d="M29.077 19.4826L28.0132 17.9583L28.9367 17.0835C29.0508 16.974 29.108 16.8645 29.108 16.7529C29.108 16.6613 29.0739 16.5832 29.0069 16.5188C28.9392 16.4554 28.8518 16.4235 28.7418 16.4235C28.658 16.4235 28.5915 16.4413 28.5417 16.4768C28.4909 16.5124 28.4302 16.568 28.3584 16.6434L26.8671 18.1986V16.884C26.8671 16.7283 26.832 16.6132 26.7613 16.5372C26.6906 16.4617 26.5979 16.4235 26.4837 16.4235C26.3675 16.4235 26.2763 16.4617 26.2092 16.5383C26.1416 16.6153 26.1076 16.7304 26.1076 16.884V19.6722C26.1076 19.7905 26.1102 19.8827 26.1155 19.9451C26.1207 20.0085 26.1354 20.064 26.159 20.1117C26.1915 20.1693 26.2376 20.2154 26.2972 20.25C26.3565 20.284 26.4188 20.3013 26.4837 20.3013C26.5964 20.3013 26.6885 20.2631 26.7597 20.1865C26.8315 20.1106 26.8671 19.9954 26.8671 19.8377V19.063L27.4889 18.4669L28.3867 19.8481C28.4222 19.9094 28.4631 19.978 28.5092 20.0524C28.5553 20.1284 28.6114 20.1876 28.6779 20.2326C28.7444 20.2787 28.8309 20.3012 28.9367 20.3012C29.0488 20.3012 29.1378 20.2703 29.2032 20.2091C29.2693 20.1478 29.3022 20.075 29.3022 19.9912C29.3022 19.9162 29.2834 19.8387 29.2457 19.7601C29.2085 19.6801 29.1524 19.5878 29.077 19.4826Z" fill="white"/>
</svg>
