<svg width="30" height="30" viewBox="0 0 30 30" fill="none" xmlns="http://www.w3.org/2000/svg">
<path d="M14.9946 29.9846C23.2641 29.9846 29.9678 23.2723 29.9678 14.9923C29.9678 6.71228 23.2641 0 14.9946 0C6.72519 0 0.0214844 6.71228 0.0214844 14.9923C0.0214844 23.2723 6.72519 29.9846 14.9946 29.9846Z" fill="url(#paint0_linear_278_133)"/>
<path d="M15.8411 29.9761C19.6125 29.7397 23.1581 28.0957 25.7775 25.3686C28.3969 22.6416 29.8995 19.0301 29.9884 15.2475C30.0498 11.9387 29.0103 8.70344 27.0336 6.05112C26.4504 5.26661 25.6348 4.6863 24.7031 4.39278C23.7714 4.09925 22.7709 4.10748 21.8441 4.41627C20.9174 4.72507 20.1115 5.31871 19.5412 6.1127C18.9709 6.90668 18.6652 7.86056 18.6677 8.83856V14.5061C18.6677 14.5745 18.6812 14.6421 18.7073 14.7053C18.7334 14.7684 18.7717 14.8258 18.82 14.8741C18.8682 14.9224 18.9255 14.9608 18.9886 14.9869C19.0516 15.0131 19.1192 15.0265 19.1875 15.0265H21.06C21.1911 15.0323 21.318 15.0742 21.4267 15.1476C21.5355 15.221 21.6219 15.3231 21.6764 15.4426C21.7309 15.562 21.7514 15.6942 21.7356 15.8246C21.7198 15.955 21.6683 16.0785 21.5869 16.1814L15.4282 23.3461C15.374 23.4093 15.3069 23.4601 15.2313 23.4949C15.1557 23.5297 15.0735 23.5477 14.9903 23.5477C14.9071 23.5477 14.8249 23.5297 14.7493 23.4949C14.6737 23.4601 14.6066 23.4093 14.5524 23.3461L8.3937 16.1814C8.30598 16.0788 8.24919 15.9533 8.22994 15.8196C8.2107 15.6859 8.22979 15.5495 8.285 15.4262C8.34022 15.3029 8.42927 15.1979 8.5418 15.1234C8.65432 15.0488 8.78568 15.0078 8.92058 15.0052H10.7931C10.931 15.0052 11.0632 14.9503 11.1606 14.8527C11.2581 14.7551 11.3129 14.6228 11.3129 14.4847V8.84569C11.3134 7.86952 11.0069 6.91798 10.437 6.12599C9.86702 5.33401 9.06252 4.7418 8.13755 4.43335C7.21258 4.12489 6.2141 4.11585 5.28371 4.40751C4.35332 4.69917 3.53826 5.27672 2.9541 6.05825C1.25836 8.3493 0.249659 11.0767 0.0461366 13.921C-0.157385 16.7654 0.452695 19.6089 1.80493 22.1186C3.15717 24.6283 5.19557 26.7003 7.68143 28.0918C10.1673 29.4834 12.9977 30.137 15.8411 29.9761Z" fill="url(#paint1_linear_278_133)"/>
<path d="M2.95479 8.23279C3.53804 7.44829 4.35356 6.86797 5.28528 6.57445C6.21701 6.28092 7.21746 6.28915 8.14425 6.59794C9.07104 6.90674 9.87694 7.50038 10.4472 8.29437C11.0175 9.08836 11.3232 10.0422 11.3207 11.0202V8.84589C11.3232 7.86789 11.0175 6.91401 10.4472 6.12002C9.87694 5.32603 9.07104 4.7324 8.14425 4.4236C7.21746 4.1148 6.21701 4.10658 5.28528 4.4001C4.35356 4.69362 3.53804 5.27394 2.95479 6.05844C1.02959 8.64238 -0.00715513 11.7816 3.71705e-05 15.0053C3.71705e-05 15.3761 3.71305e-05 15.7183 0.0427565 16.1032C0.239762 13.2545 1.25059 10.5225 2.95479 8.23279Z" fill="url(#paint2_linear_278_133)"/>
<path d="M27.0346 8.2354C28.7199 10.495 29.7297 13.1872 29.9467 15.9989C29.9467 15.7494 29.9894 15.507 29.9965 15.286C30.0579 11.9772 29.0184 8.74189 27.0418 6.08957C26.4585 5.30507 25.643 4.72475 24.7113 4.43123C23.7796 4.1377 22.7791 4.14593 21.8523 4.45473C20.9255 4.76352 20.1196 5.35716 19.5493 6.15115C18.979 6.94514 18.6734 7.89901 18.6759 8.87701V11.0514C18.6694 10.0728 18.9715 9.11705 19.5392 8.32044C20.1069 7.52383 20.9113 6.92696 21.8376 6.61488C22.764 6.30281 23.7651 6.29145 24.6982 6.58243C25.6314 6.87341 26.449 7.45188 27.0346 8.2354Z" fill="url(#paint3_linear_278_133)"/>
<path d="M8.92296 17.2047C8.79192 17.2105 8.665 17.2524 8.55623 17.3258C8.44746 17.3992 8.36106 17.5013 8.30655 17.6207C8.25205 17.7402 8.23157 17.8724 8.24737 18.0028C8.26317 18.1332 8.31464 18.2567 8.39609 18.3596L14.5619 25.5243C14.6161 25.5875 14.6832 25.6383 14.7588 25.6731C14.8344 25.7079 14.9166 25.7259 14.9998 25.7259C15.083 25.7259 15.1652 25.7079 15.2408 25.6731C15.3164 25.6383 15.3835 25.5875 15.4377 25.5243L21.5964 18.3596C21.6778 18.2567 21.7293 18.1332 21.7451 18.0028C21.7609 17.8724 21.7404 17.7402 21.6859 17.6207C21.6314 17.5013 21.545 17.3992 21.4362 17.3258C21.3275 17.2524 21.2006 17.2105 21.0695 17.2047H20.6922L15.4306 23.3499C15.3764 23.4132 15.3092 23.4639 15.2337 23.4987C15.1581 23.5335 15.0759 23.5516 14.9927 23.5516C14.9095 23.5516 14.8273 23.5335 14.7517 23.4987C14.6761 23.4639 14.6089 23.4132 14.5548 23.3499L9.30032 17.2047H8.92296Z" fill="url(#paint4_linear_278_133)"/>
<defs>
<linearGradient id="paint0_linear_278_133" x1="14.9946" y1="22.6631" x2="14.9946" y2="-47.8" gradientUnits="userSpaceOnUse">
<stop stop-color="white"/>
<stop offset="0.52" stop-color="#CCE2E6"/>
<stop offset="1" stop-color="#8FA1BB"/>
</linearGradient>
<linearGradient id="paint1_linear_278_133" x1="14.9939" y1="-32.8733" x2="14.9939" y2="35.223" gradientUnits="userSpaceOnUse">
<stop stop-color="#F3C57A"/>
<stop offset="0.49" stop-color="#F39369"/>
<stop offset="1" stop-color="#E94867"/>
</linearGradient>
<linearGradient id="paint2_linear_278_133" x1="5.66036" y1="-57.7177" x2="5.66036" y2="33.113" gradientUnits="userSpaceOnUse">
<stop stop-color="#F3C57A"/>
<stop offset="0.49" stop-color="#F39369"/>
<stop offset="1" stop-color="#E94867"/>
</linearGradient>
<linearGradient id="paint3_linear_278_133" x1="24.3291" y1="-57.715" x2="24.3291" y2="33.1156" gradientUnits="userSpaceOnUse">
<stop stop-color="#F3C57A"/>
<stop offset="0.49" stop-color="#F39369"/>
<stop offset="1" stop-color="#E94867"/>
</linearGradient>
<linearGradient id="paint4_linear_278_133" x1="14.9962" y1="-57.714" x2="14.9962" y2="33.1167" gradientUnits="userSpaceOnUse">
<stop stop-color="#F3C57A"/>
<stop offset="0.49" stop-color="#F39369"/>
<stop offset="1" stop-color="#E94867"/>
</linearGradient>
</defs>
</svg>
