<svg width="30" height="30" viewBox="0 0 30 30" fill="none" xmlns="http://www.w3.org/2000/svg">
<path d="M13.8859 26.8652C21.0048 26.8652 26.7757 21.0738 26.7757 13.9297C26.7757 6.78562 21.0048 0.994202 13.8859 0.994202C6.76707 0.994202 0.996094 6.78562 0.996094 13.9297C0.996094 21.0738 6.76707 26.8652 13.8859 26.8652Z" fill="url(#paint0_linear_278_146)"/>
<path d="M0.163403 15.9214C0.120698 15.6286 0.0566406 15.3286 0.0566406 15C0.0566406 15.3357 0.120698 15.6286 0.163403 15.9214Z" fill="url(#paint1_linear_278_146)"/>
<path d="M18.691 22.6204C17.7373 25.7132 16.1572 27.856 13.8867 27.856C17.2196 27.8495 20.439 26.6402 22.9571 24.4489C25.4751 22.2577 27.1239 19.2306 27.6022 15.9205H23.595C23.3042 17.3249 22.7158 18.6501 21.8697 19.8061C21.0235 20.9621 19.9395 21.9219 18.691 22.6204Z" fill="url(#paint2_linear_278_146)"/>
<path d="M0.0566406 12.8577C0.0566406 12.5577 0.120698 12.2649 0.156286 11.972C0.120698 12.2292 0.0566406 12.522 0.0566406 12.8577Z" fill="url(#paint3_linear_278_146)"/>
<path d="M27.709 15C27.709 15.3 27.645 15.5928 27.6094 15.8857C27.645 15.6286 27.6805 15.3357 27.709 15Z" fill="url(#paint4_linear_278_146)"/>
<path d="M9.0752 5.23562C10.0218 2.14282 11.609 0 13.8866 0C10.5525 0.00480798 7.33137 1.21333 4.81184 3.40475C2.2923 5.59617 0.642563 8.62418 0.164062 11.9355H4.17123C4.46199 10.5311 5.05042 9.20595 5.89657 8.04993C6.74272 6.8939 7.82679 5.93409 9.0752 5.23562Z" fill="url(#paint5_linear_278_146)"/>
<path d="M9.0752 22.6204C7.82679 21.9219 6.74272 20.9621 5.89657 19.8061C5.05042 18.6501 4.46199 17.3249 4.17123 15.9205H0.164062C0.642563 19.2318 2.2923 22.2598 4.81184 24.4513C7.33137 26.6427 10.5525 27.8512 13.8866 27.856C11.609 27.856 10.0218 25.7132 9.0752 22.6204Z" fill="url(#paint6_linear_278_146)"/>
<path d="M18.691 5.23562C19.9395 5.93409 21.0235 6.8939 21.8697 8.04993C22.7158 9.20595 23.3042 10.5311 23.595 11.9355H27.6022C27.1239 8.6254 25.4751 5.59835 22.9571 3.40709C20.439 1.21582 17.2196 0.00652101 13.8867 0C16.1572 0 17.7373 2.14282 18.691 5.23562Z" fill="url(#paint7_linear_278_146)"/>
<path d="M11.9586 11.9358C12.2077 7.6502 13.2469 4.97167 13.8874 4.1574C14.528 4.97167 15.5601 7.62163 15.8163 11.9358H19.7879C19.6965 9.66653 19.3308 7.41677 18.6989 5.23595C17.2292 4.41275 15.5741 3.98059 13.891 3.98059C12.2079 3.98059 10.5528 4.41275 9.08312 5.23595C8.45118 7.41677 8.08551 9.66653 7.99414 11.9358H11.9586Z" fill="url(#paint8_linear_278_146)"/>
<path d="M15.8104 15.9205C15.5613 20.2061 14.5222 22.8847 13.8816 23.6989C13.241 22.8847 12.209 20.2347 11.9527 15.9205H7.98828C8.07965 18.1898 8.44532 20.4396 9.07726 22.6204C10.5469 23.4436 12.202 23.8757 13.8851 23.8757C15.5682 23.8757 17.2234 23.4436 18.693 22.6204C19.325 20.4396 19.6906 18.1898 19.782 15.9205H15.8104Z" fill="url(#paint9_linear_278_146)"/>
<path d="M9.07422 5.23562C10.5439 4.41242 12.199 3.98026 13.8821 3.98026C15.5652 3.98026 17.2203 4.41242 18.69 5.23562C17.7362 2.14282 16.1562 0 13.8857 0C11.6152 0 10.0208 2.14282 9.07422 5.23562Z" fill="url(#paint10_linear_278_146)"/>
<path d="M9.07422 5.23562C10.5439 4.41242 12.199 3.98026 13.8821 3.98026C15.5652 3.98026 17.2203 4.41242 18.69 5.23562C17.7362 2.14282 16.1562 0 13.8857 0C11.6152 0 10.0208 2.14282 9.07422 5.23562Z" fill="url(#paint11_linear_278_146)"/>
<path d="M18.69 22.621C17.2203 23.4442 15.5652 23.8763 13.8821 23.8763C12.199 23.8763 10.5439 23.4442 9.07422 22.621C10.0208 25.7138 11.6081 27.8566 13.8857 27.8566C16.1633 27.8566 17.7362 25.7138 18.69 22.621Z" fill="url(#paint12_linear_278_146)"/>
<path d="M18.69 22.621C17.2203 23.4442 15.5652 23.8763 13.8821 23.8763C12.199 23.8763 10.5439 23.4442 9.07422 22.621C10.0208 25.7138 11.6081 27.8566 13.8857 27.8566C16.1633 27.8566 17.7362 25.7138 18.69 22.621Z" fill="url(#paint13_linear_278_146)"/>
<path d="M27.707 12.8566C27.707 13.2209 27.764 13.5709 27.764 13.9637C27.764 13.5709 27.7355 13.1852 27.707 12.8566Z" fill="url(#paint14_linear_278_146)"/>
<path d="M0.0569401 14.9995C0.0569401 14.6352 0 14.2852 0 13.8924C0.00711752 14.2852 0.0569401 14.671 0.0569401 14.9995Z" fill="url(#paint15_linear_278_146)"/>
<path d="M0.0078125 13.9278C0.0078125 13.5564 0.00781245 13.2135 0.0647526 12.8207C0.0576351 13.185 0.0078125 13.5707 0.0078125 13.9278Z" fill="url(#paint16_linear_278_146)"/>
<path d="M27.764 13.9283C27.764 14.2997 27.764 14.6426 27.707 15.0354C27.7355 14.6712 27.764 14.2855 27.764 13.9283Z" fill="url(#paint17_linear_278_146)"/>
<path d="M19.8291 13.9275C19.8291 14.5917 19.8291 15.256 19.7793 15.9203H23.5943C23.8598 14.6075 23.8598 13.2546 23.5943 11.9418H19.7793C19.8149 12.5989 19.8291 13.2632 19.8291 13.9275Z" fill="url(#paint18_linear_278_146)"/>
<path d="M7.93502 13.9289C7.93502 13.2647 7.93502 12.6004 7.98484 11.9361H4.16985C3.90432 13.2489 3.90432 14.6018 4.16985 15.9146H7.98484C7.94926 15.2575 7.93502 14.5932 7.93502 13.9289Z" fill="url(#paint19_linear_278_146)"/>
<path d="M15.8079 11.9361H11.9573C11.9217 12.5647 11.9004 13.229 11.9004 13.9289C11.9004 14.6289 11.9004 15.2932 11.9573 15.9218H15.8079C15.8435 15.2932 15.8648 14.6289 15.8648 13.9289C15.8648 13.229 15.8435 12.5647 15.8079 11.9361Z" fill="url(#paint20_linear_278_146)"/>
<path d="M27.7096 15.0002C27.7096 14.6359 27.7666 14.2859 27.7666 13.893C27.7666 13.5002 27.7666 13.1788 27.7096 12.7859C27.6527 12.3931 27.6456 12.1931 27.61 11.9002H23.5957C23.8612 13.213 23.8612 14.5659 23.5957 15.8787H27.6029C27.6456 15.6287 27.6812 15.3287 27.7096 15.0002Z" fill="url(#paint21_linear_278_146)"/>
<path d="M27.7096 15.0002C27.7096 14.6359 27.7666 14.2859 27.7666 13.893C27.7666 13.5002 27.7666 13.1788 27.7096 12.7859C27.6527 12.3931 27.6456 12.1931 27.61 11.9002H23.5957C23.8612 13.213 23.8612 14.5659 23.5957 15.8787H27.6029C27.6456 15.6287 27.6812 15.3287 27.7096 15.0002Z" fill="url(#paint22_linear_278_146)"/>
<path d="M3.97158 13.9289C3.97109 13.2596 4.03786 12.592 4.17087 11.9361H0.163703C0.120998 12.229 0.0569401 12.529 0.0569401 12.8575C0.0569401 13.1861 0 13.5718 0 13.9647C0 14.3575 0.0569401 14.6718 0.0569401 15.0004C0.0569401 15.3289 0.120998 15.5932 0.156585 15.8861H4.17087C4.04022 15.2419 3.97346 14.5863 3.97158 13.9289Z" fill="url(#paint23_linear_278_146)"/>
<path d="M3.97158 13.9289C3.97109 13.2596 4.03786 12.592 4.17087 11.9361H0.163703C0.120998 12.229 0.0569401 12.529 0.0569401 12.8575C0.0569401 13.1861 0 13.5718 0 13.9647C0 14.3575 0.0569401 14.6718 0.0569401 15.0004C0.0569401 15.3289 0.120998 15.5932 0.156585 15.8861H4.17087C4.04022 15.2419 3.97346 14.5863 3.97158 13.9289Z" fill="url(#paint24_linear_278_146)"/>
<path d="M11.9589 11.9361H7.98732C7.98732 12.5933 7.9375 13.2575 7.9375 13.9289C7.9375 14.6004 7.9375 15.2575 7.98732 15.9218H11.9589C11.9233 15.2932 11.902 14.6289 11.902 13.9289C11.902 13.229 11.9233 12.5647 11.9589 11.9361Z" fill="url(#paint25_linear_278_146)"/>
<path d="M11.9589 11.9361H7.98732C7.98732 12.5933 7.9375 13.2575 7.9375 13.9289C7.9375 14.6004 7.9375 15.2575 7.98732 15.9218H11.9589C11.9233 15.2932 11.902 14.6289 11.902 13.9289C11.902 13.229 11.9233 12.5647 11.9589 11.9361Z" fill="url(#paint26_linear_278_146)"/>
<path d="M15.8636 13.9289C15.8636 14.6432 15.8636 15.2932 15.8066 15.9218H19.7782C19.7782 15.2646 19.828 14.6004 19.828 13.9289C19.828 13.2575 19.828 12.6004 19.7782 11.9361H15.8066C15.8422 12.5647 15.8636 13.229 15.8636 13.9289Z" fill="url(#paint27_linear_278_146)"/>
<path d="M15.8636 13.9289C15.8636 14.6432 15.8636 15.2932 15.8066 15.9218H19.7782C19.7782 15.2646 19.828 14.6004 19.828 13.9289C19.828 13.2575 19.828 12.6004 19.7782 11.9361H15.8066C15.8422 12.5647 15.8636 13.229 15.8636 13.9289Z" fill="url(#paint28_linear_278_146)"/>
<path d="M28.9321 25.7135H18.2559V18.2136C18.2559 17.5101 18.3939 16.8135 18.6622 16.1636C18.9305 15.5136 19.3237 14.9231 19.8194 14.4256C20.3151 13.9282 20.9035 13.5336 21.5512 13.2644C22.1988 12.9952 22.893 12.8566 23.594 12.8566C24.295 12.8566 24.9892 12.9952 25.6368 13.2644C26.2845 13.5336 26.8729 13.9282 27.3686 14.4256C27.8643 14.9231 28.2575 15.5136 28.5258 16.1636C28.7941 16.8135 28.9321 17.5101 28.9321 18.2136V25.7135ZM20.3911 23.5707H26.7969V18.2136C26.7969 17.7915 26.714 17.3736 26.5531 16.9836C26.3921 16.5936 26.1562 16.2393 25.8588 15.9408C25.5614 15.6424 25.2083 15.4056 24.8197 15.2441C24.4311 15.0826 24.0146 14.9994 23.594 14.9994C23.1734 14.9994 22.7569 15.0826 22.3683 15.2441C21.9797 15.4056 21.6266 15.6424 21.3292 15.9408C21.0318 16.2393 20.7959 16.5936 20.6349 16.9836C20.474 17.3736 20.3911 17.7915 20.3911 18.2136V23.5707Z" fill="url(#paint29_linear_278_146)"/>
<path d="M28.9321 19.3725C28.7741 19.3174 28.6083 19.2885 28.441 19.2868H26.7969V23.5724H20.3911V19.2868H18.747C18.5797 19.2885 18.4139 19.3174 18.2559 19.3725V25.7153H28.9321V19.3725Z" fill="url(#paint30_linear_278_146)"/>
<path d="M28.4423 20.3566H18.7482C17.8873 20.3566 17.1895 21.0569 17.1895 21.9209V28.435C17.1895 29.2989 17.8873 29.9993 18.7482 29.9993H28.4423C29.3031 29.9993 30.001 29.2989 30.001 28.435V21.9209C30.001 21.0569 29.3031 20.3566 28.4423 20.3566Z" fill="url(#paint31_linear_278_146)"/>
<path d="M18.7455 20.3566C18.42 20.3583 18.1033 20.4626 17.8402 20.6549C17.577 20.8472 17.3808 21.1177 17.2793 21.428H29.9485C29.8466 21.1165 29.6493 20.8452 29.3847 20.6528C29.1202 20.4605 28.8019 20.3568 28.4752 20.3566H18.7455Z" fill="url(#paint32_linear_278_146)"/>
<path d="M25.1318 25.1122C25.1165 24.7471 24.9726 24.3992 24.7256 24.1307C24.4787 23.8621 24.1448 23.6902 23.7833 23.6456C23.4219 23.601 23.0564 23.6866 22.752 23.8872C22.4476 24.0877 22.224 24.3902 22.1211 24.7408C22.064 24.9714 22.0613 25.2122 22.1132 25.4441C22.1651 25.6759 22.2701 25.8925 22.42 26.0765C22.5348 26.2255 22.5951 26.4096 22.5908 26.5979V26.8264C22.5908 27.0956 22.6958 27.354 22.8834 27.5463C23.071 27.7386 23.3263 27.8494 23.5944 27.855C23.8662 27.855 24.1269 27.7466 24.3191 27.5537C24.5113 27.3608 24.6193 27.0992 24.6193 26.8264V26.5979C24.6171 26.4065 24.6799 26.2201 24.7972 26.0693C25.0146 25.7981 25.1326 25.4602 25.1318 25.1122Z" fill="url(#paint33_linear_278_146)"/>
<path d="M25.0324 25.6565C24.9012 25.2934 24.639 24.9929 24.2977 24.8143C23.9564 24.6358 23.5608 24.5922 23.189 24.6923C22.9541 24.7574 22.7383 24.8784 22.5598 25.045C22.3814 25.2116 22.2457 25.4189 22.1641 25.6494C22.2191 25.8039 22.2984 25.9485 22.3989 26.0779C22.5138 26.227 22.5741 26.411 22.5698 26.5994V26.8279C22.5698 27.1007 22.6777 27.3623 22.87 27.5552C23.0622 27.7481 23.3229 27.8565 23.5947 27.8565C23.8665 27.8565 24.1272 27.7481 24.3194 27.5552C24.5116 27.3623 24.6196 27.1007 24.6196 26.8279V26.5994C24.6174 26.408 24.6802 26.2216 24.7975 26.0708C24.8967 25.9458 24.976 25.806 25.0324 25.6565Z" fill="url(#paint34_linear_278_146)"/>
<defs>
<linearGradient id="paint0_linear_278_146" x1="13.8859" y1="35.3222" x2="13.8859" y2="-17.7698" gradientUnits="userSpaceOnUse">
<stop stop-color="#273A9B"/>
<stop offset="0.56" stop-color="#202F65"/>
<stop offset="1" stop-color="#021E2F"/>
</linearGradient>
<linearGradient id="paint1_linear_278_146" x1="0.113581" y1="42.9495" x2="0.113581" y2="-23.2279" gradientUnits="userSpaceOnUse">
<stop stop-color="#27E9DE"/>
<stop offset="0.52" stop-color="#03A4EC"/>
<stop offset="1" stop-color="#2547A8"/>
</linearGradient>
<linearGradient id="paint2_linear_278_146" x1="20.7409" y1="40.6772" x2="20.7409" y2="0.135065" gradientUnits="userSpaceOnUse">
<stop stop-color="#27E9DE"/>
<stop offset="0.52" stop-color="#03A4EC"/>
<stop offset="1" stop-color="#2547A8"/>
</linearGradient>
<linearGradient id="paint3_linear_278_146" x1="0.113581" y1="42.95" x2="0.113581" y2="-23.2274" gradientUnits="userSpaceOnUse">
<stop stop-color="#27E9DE"/>
<stop offset="0.52" stop-color="#03A4EC"/>
<stop offset="1" stop-color="#2547A8"/>
</linearGradient>
<linearGradient id="paint4_linear_278_146" x1="27.6592" y1="42.9495" x2="27.6592" y2="-23.2279" gradientUnits="userSpaceOnUse">
<stop stop-color="#27E9DE"/>
<stop offset="0.52" stop-color="#03A4EC"/>
<stop offset="1" stop-color="#2547A8"/>
</linearGradient>
<linearGradient id="paint5_linear_278_146" x1="7.02535" y1="-15.6997" x2="7.02535" y2="25.9924" gradientUnits="userSpaceOnUse">
<stop stop-color="#27E9DE"/>
<stop offset="0.52" stop-color="#03A4EC"/>
<stop offset="1" stop-color="#2547A8"/>
</linearGradient>
<linearGradient id="paint6_linear_278_146" x1="7.02535" y1="40.6772" x2="7.02535" y2="0.135065" gradientUnits="userSpaceOnUse">
<stop stop-color="#27E9DE"/>
<stop offset="0.52" stop-color="#03A4EC"/>
<stop offset="1" stop-color="#2547A8"/>
</linearGradient>
<linearGradient id="paint7_linear_278_146" x1="20.7409" y1="-15.6997" x2="20.7409" y2="25.9924" gradientUnits="userSpaceOnUse">
<stop stop-color="#27E9DE"/>
<stop offset="0.52" stop-color="#03A4EC"/>
<stop offset="1" stop-color="#2547A8"/>
</linearGradient>
<linearGradient id="paint8_linear_278_146" x1="13.8874" y1="42.9496" x2="13.8874" y2="-23.2278" gradientUnits="userSpaceOnUse">
<stop stop-color="#27E9DE"/>
<stop offset="0.52" stop-color="#03A4EC"/>
<stop offset="1" stop-color="#2547A8"/>
</linearGradient>
<linearGradient id="paint9_linear_278_146" x1="13.8887" y1="42.9486" x2="13.8887" y2="-23.2288" gradientUnits="userSpaceOnUse">
<stop stop-color="#27E9DE"/>
<stop offset="0.52" stop-color="#03A4EC"/>
<stop offset="1" stop-color="#2547A8"/>
</linearGradient>
<linearGradient id="paint10_linear_278_146" x1="13.8857" y1="42.9421" x2="13.8857" y2="-23.2282" gradientUnits="userSpaceOnUse">
<stop stop-color="#27E9DE"/>
<stop offset="0.52" stop-color="#03A4EC"/>
<stop offset="1" stop-color="#2547A8"/>
</linearGradient>
<linearGradient id="paint11_linear_278_146" x1="13.8857" y1="-10.8284" x2="13.8857" y2="37.6493" gradientUnits="userSpaceOnUse">
<stop stop-color="#27E9DE"/>
<stop offset="0.52" stop-color="#03A4EC"/>
<stop offset="1" stop-color="#2547A8"/>
</linearGradient>
<linearGradient id="paint12_linear_278_146" x1="13.8857" y1="42.942" x2="13.8857" y2="-23.2282" gradientUnits="userSpaceOnUse">
<stop stop-color="#27E9DE"/>
<stop offset="0.52" stop-color="#03A4EC"/>
<stop offset="1" stop-color="#2547A8"/>
</linearGradient>
<linearGradient id="paint13_linear_278_146" x1="13.8857" y1="51.399" x2="13.8857" y2="-1.15719" gradientUnits="userSpaceOnUse">
<stop stop-color="#27E9DE"/>
<stop offset="0.52" stop-color="#03A4EC"/>
<stop offset="1" stop-color="#2547A8"/>
</linearGradient>
<linearGradient id="paint14_linear_278_146" x1="27.7355" y1="42.9418" x2="27.7355" y2="-23.2285" gradientUnits="userSpaceOnUse">
<stop stop-color="#27E9DE"/>
<stop offset="0.52" stop-color="#03A4EC"/>
<stop offset="1" stop-color="#2547A8"/>
</linearGradient>
<linearGradient id="paint15_linear_278_146" x1="0.0355873" y1="42.9419" x2="0.0355873" y2="-23.2284" gradientUnits="userSpaceOnUse">
<stop stop-color="#27E9DE"/>
<stop offset="0.52" stop-color="#03A4EC"/>
<stop offset="1" stop-color="#2547A8"/>
</linearGradient>
<linearGradient id="paint16_linear_278_146" x1="0.0362824" y1="42.9416" x2="0.0362824" y2="-23.2287" gradientUnits="userSpaceOnUse">
<stop stop-color="#27E9DE"/>
<stop offset="0.52" stop-color="#03A4EC"/>
<stop offset="1" stop-color="#2547A8"/>
</linearGradient>
<linearGradient id="paint17_linear_278_146" x1="27.7355" y1="42.9421" x2="27.7355" y2="-23.2282" gradientUnits="userSpaceOnUse">
<stop stop-color="#27E9DE"/>
<stop offset="0.52" stop-color="#03A4EC"/>
<stop offset="1" stop-color="#2547A8"/>
</linearGradient>
<linearGradient id="paint18_linear_278_146" x1="21.7864" y1="28.2701" x2="21.7864" y2="3.93477" gradientUnits="userSpaceOnUse">
<stop stop-color="#27E9DE"/>
<stop offset="0.52" stop-color="#03A4EC"/>
<stop offset="1" stop-color="#2547A8"/>
</linearGradient>
<linearGradient id="paint19_linear_278_146" x1="5.9777" y1="28.2716" x2="5.9777" y2="3.93626" gradientUnits="userSpaceOnUse">
<stop stop-color="#27E9DE"/>
<stop offset="0.52" stop-color="#03A4EC"/>
<stop offset="1" stop-color="#2547A8"/>
</linearGradient>
<linearGradient id="paint20_linear_278_146" x1="13.8862" y1="28.2716" x2="13.8862" y2="3.93627" gradientUnits="userSpaceOnUse">
<stop stop-color="#27E9DE"/>
<stop offset="0.52" stop-color="#03A4EC"/>
<stop offset="1" stop-color="#2547A8"/>
</linearGradient>
<linearGradient id="paint21_linear_278_146" x1="25.6811" y1="42.9425" x2="25.6811" y2="-23.2277" gradientUnits="userSpaceOnUse">
<stop stop-color="#27E9DE"/>
<stop offset="0.52" stop-color="#03A4EC"/>
<stop offset="1" stop-color="#2547A8"/>
</linearGradient>
<linearGradient id="paint22_linear_278_146" x1="25.6811" y1="42.9425" x2="25.6811" y2="-23.2277" gradientUnits="userSpaceOnUse">
<stop stop-color="#27E9DE"/>
<stop offset="0.52" stop-color="#03A4EC"/>
<stop offset="1" stop-color="#2547A8"/>
</linearGradient>
<linearGradient id="paint23_linear_278_146" x1="2.08543" y1="42.9427" x2="2.08543" y2="-23.2275" gradientUnits="userSpaceOnUse">
<stop stop-color="#27E9DE"/>
<stop offset="0.52" stop-color="#03A4EC"/>
<stop offset="1" stop-color="#2547A8"/>
</linearGradient>
<linearGradient id="paint24_linear_278_146" x1="2.08543" y1="42.9427" x2="2.08543" y2="-23.2275" gradientUnits="userSpaceOnUse">
<stop stop-color="#27E9DE"/>
<stop offset="0.52" stop-color="#03A4EC"/>
<stop offset="1" stop-color="#2547A8"/>
</linearGradient>
<linearGradient id="paint25_linear_278_146" x1="9.94464" y1="42.9427" x2="9.94464" y2="-23.2276" gradientUnits="userSpaceOnUse">
<stop stop-color="#27E9DE"/>
<stop offset="0.52" stop-color="#03A4EC"/>
<stop offset="1" stop-color="#2547A8"/>
</linearGradient>
<linearGradient id="paint26_linear_278_146" x1="9.94464" y1="42.9427" x2="9.94464" y2="-23.2276" gradientUnits="userSpaceOnUse">
<stop stop-color="#27E9DE"/>
<stop offset="0.52" stop-color="#03A4EC"/>
<stop offset="1" stop-color="#2547A8"/>
</linearGradient>
<linearGradient id="paint27_linear_278_146" x1="17.8209" y1="42.9427" x2="17.8209" y2="-23.2276" gradientUnits="userSpaceOnUse">
<stop stop-color="#27E9DE"/>
<stop offset="0.52" stop-color="#03A4EC"/>
<stop offset="1" stop-color="#2547A8"/>
</linearGradient>
<linearGradient id="paint28_linear_278_146" x1="17.8209" y1="42.9427" x2="17.8209" y2="-23.2276" gradientUnits="userSpaceOnUse">
<stop stop-color="#27E9DE"/>
<stop offset="0.52" stop-color="#03A4EC"/>
<stop offset="1" stop-color="#2547A8"/>
</linearGradient>
<linearGradient id="paint29_linear_278_146" x1="23.594" y1="22.085" x2="23.594" y2="8.59953" gradientUnits="userSpaceOnUse">
<stop stop-color="white"/>
<stop offset="0.52" stop-color="#CCE2E6"/>
<stop offset="1" stop-color="#8FA1BB"/>
</linearGradient>
<linearGradient id="paint30_linear_278_146" x1="23.594" y1="16.744" x2="23.594" y2="25.5581" gradientUnits="userSpaceOnUse">
<stop stop-color="white"/>
<stop offset="0.52" stop-color="#CCE2E6"/>
<stop offset="1" stop-color="#8FA1BB"/>
</linearGradient>
<linearGradient id="paint31_linear_278_146" x1="23.5952" y1="38.0349" x2="23.5952" y2="0.47123" gradientUnits="userSpaceOnUse">
<stop stop-color="#273A9B"/>
<stop offset="0.56" stop-color="#202F65"/>
<stop offset="1" stop-color="#021E2F"/>
</linearGradient>
<linearGradient id="paint32_linear_278_146" x1="23.5925" y1="24.1494" x2="23.5925" y2="28.3922" gradientUnits="userSpaceOnUse">
<stop stop-color="#273A9B"/>
<stop offset="0.56" stop-color="#202F65"/>
<stop offset="1" stop-color="#021E2F"/>
</linearGradient>
<linearGradient id="paint33_linear_278_146" x1="23.5944" y1="32.1621" x2="23.5944" y2="21.4408" gradientUnits="userSpaceOnUse">
<stop stop-color="#F3C57A"/>
<stop offset="0.49" stop-color="#F39369"/>
<stop offset="1" stop-color="#E94867"/>
</linearGradient>
<linearGradient id="paint34_linear_278_146" x1="23.6018" y1="27.4993" x2="23.6018" y2="22.5351" gradientUnits="userSpaceOnUse">
<stop stop-color="#F3C57A"/>
<stop offset="0.49" stop-color="#F39369"/>
<stop offset="1" stop-color="#E94867"/>
</linearGradient>
</defs>
</svg>
