<svg width="30" height="30" viewBox="0 0 30 30" fill="none" xmlns="http://www.w3.org/2000/svg">
<path d="M25.029 7.16669C24.0323 3.05078 20.4061 0 16.0858 0C12.8554 0 10.0124 1.70504 8.36718 4.28811C7.97273 4.22063 7.57354 4.1865 7.17364 4.18606C3.21177 4.18606 0 7.48133 0 11.5462C0 15.6111 3.21177 18.9064 7.17364 18.9064H24.254C27.4285 18.9064 30 16.2659 30 13.011C30 10.024 27.8367 7.55574 25.029 7.16669Z" fill="#67BAEB"/>
<path d="M14.6677 18.2831C18.5724 18.2831 21.7377 15.0354 21.7377 11.0292C21.7377 7.02305 18.5724 3.77539 14.6677 3.77539C10.763 3.77539 7.59766 7.02305 7.59766 11.0292C7.59766 15.0354 10.763 18.2831 14.6677 18.2831Z" fill="#46A1F8"/>
<path d="M13.2938 1.2756C17.1686 1.2756 20.5441 3.47812 22.293 6.72875C23.0369 8.11276 24.1372 9.25654 25.484 10.0176C27.465 11.1359 28.8056 13.298 28.8056 15.7791C28.8056 16.0827 28.7855 16.386 28.7455 16.6869C29.5594 15.6439 30.0016 14.3471 29.9992 13.011C29.9992 10.024 27.8359 7.55576 25.0282 7.1667C24.0315 3.0508 20.4053 1.5387e-05 16.0849 1.5387e-05C14.3041 -0.00328889 12.5609 0.525654 11.0684 1.52222C11.7993 1.35766 12.5455 1.27498 13.2938 1.2756Z" fill="#83D0FB"/>
<path d="M27.039 16.3691H9.95856C5.99668 16.3691 2.78491 13.0739 2.78491 9.00898C2.78305 7.56905 3.19456 6.16045 3.96809 4.95898C1.61625 6.16654 0 8.66245 0 11.5453C0 15.6102 3.21177 18.9054 7.17364 18.9054H24.254C26.3987 18.9054 28.2677 17.7 29.2561 15.9142C28.5539 16.2156 27.8001 16.3703 27.039 16.3691Z" fill="#46A1F8"/>
<path d="M9.71875 18.9055H13.1046V13.9668H9.71875V18.9055Z" fill="#46A1F8"/>
<path d="M18.5482 11.1759V23.8255H20.6307C21.1321 23.8255 21.3642 24.4612 20.9891 24.7992L15.3592 29.8612C15.2604 29.9504 15.1334 29.9997 15.0018 29.9997C14.8702 29.9997 14.7431 29.9504 14.6443 29.8612L9.01441 24.7992C8.63728 24.4612 8.87143 23.8255 9.37081 23.8255H11.4533V11.1759C11.4538 10.959 11.5381 10.7512 11.6875 10.5978C11.837 10.4444 12.0396 10.358 12.251 10.3574H17.7504C17.962 10.3574 18.1649 10.4437 18.3145 10.5972C18.4641 10.7507 18.5482 10.9588 18.5482 11.1759Z" fill="#F4C23F"/>
<path d="M18.5482 13.489H14.8432C14.7216 13.4884 14.6011 13.5126 14.4886 13.56C14.3761 13.6074 14.2739 13.6772 14.1878 13.7653C14.1017 13.8535 14.0335 13.9582 13.987 14.0735C13.9405 14.1888 13.9167 14.3124 13.917 14.4372V25.656C13.917 25.908 13.8194 26.1497 13.6457 26.328C13.472 26.5062 13.2364 26.6063 12.9908 26.6063H11.0202L9.01441 24.7992C8.63728 24.4612 8.87143 23.8255 9.37081 23.8255H11.4533V11.1759C11.4538 10.959 11.5381 10.7512 11.6875 10.5978C11.837 10.4444 12.0396 10.358 12.251 10.3574H17.7504C17.962 10.3574 18.1649 10.4437 18.3145 10.5972C18.4641 10.7507 18.5482 10.9588 18.5482 11.1759V13.489Z" fill="#F4A93F"/>
<path d="M18.5487 20.1156C18.5487 19.4897 18.0542 18.9824 17.4443 18.9824C16.8343 18.9824 16.3398 19.4897 16.3398 20.1156V21.2192C16.3398 21.845 16.8343 22.3523 17.4443 22.3523C18.0542 22.3523 18.5487 21.845 18.5487 21.2192V20.1156Z" fill="#FAD564"/>
<path d="M18.1278 25.4528L17.1377 26.358C16.8642 26.6079 16.8401 27.038 17.0837 27.3185C17.3273 27.599 17.7464 27.6238 18.0199 27.3739L19.01 26.4687C19.2834 26.2188 19.3076 25.7888 19.064 25.5082C18.8204 25.2277 18.4012 25.2029 18.1278 25.4528Z" fill="#FAD564"/>
<path d="M18.5469 23.8262H20.6293C21.1142 23.8262 21.3484 24.4214 21.021 24.768H18.924C18.8243 24.768 18.7287 24.7275 18.6581 24.6554C18.5874 24.5833 18.5474 24.4854 18.5469 24.3832V23.8262Z" fill="#F4A93F"/>
<path d="M10.7343 25.2272H9.48892L9.01441 24.7999C8.63728 24.4618 8.87143 23.8262 9.37081 23.8262H11.4533V24.4895C11.4533 24.5864 11.4347 24.6823 11.3985 24.7718C11.3624 24.8613 11.3094 24.9426 11.2427 25.0111C11.1759 25.0796 11.0967 25.134 11.0094 25.171C10.9222 25.2081 10.8287 25.2272 10.7343 25.2272Z" fill="#F8881B"/>
<path d="M14.669 18.2831C16.0476 18.2853 17.3964 17.8721 18.548 17.0947V11.1759C18.548 10.9588 18.464 10.7507 18.3144 10.5972C18.1648 10.4437 17.9618 10.3574 17.7503 10.3574H12.2509C12.0395 10.358 11.8369 10.4444 11.6874 10.5978C11.5379 10.7512 11.4537 10.959 11.4531 11.1759V17.4901C12.4486 18.0124 13.5509 18.2842 14.669 18.2831Z" fill="#F4A93F"/>
<path d="M15.0002 17.0911C18.7218 17.0911 21.7387 13.9957 21.7387 10.1774C21.7387 6.35904 18.7218 3.26367 15.0002 3.26367C11.2786 3.26367 8.26172 6.35904 8.26172 10.1774C8.26172 13.9957 11.2786 17.0911 15.0002 17.0911Z" fill="#F8881B"/>
<path d="M15 16.2843C18.2879 16.2843 20.9532 13.5496 20.9532 10.1763C20.9532 6.80298 18.2879 4.06836 15 4.06836C11.7122 4.06836 9.04688 6.80298 9.04688 10.1763C9.04688 13.5496 11.7122 16.2843 15 16.2843Z" fill="#F08000"/>
<path d="M15.0007 15.5984C17.9189 15.5984 20.2846 13.1712 20.2846 10.1771C20.2846 7.18304 17.9189 4.75586 15.0007 4.75586C12.0825 4.75586 9.7168 7.18304 9.7168 10.1771C9.7168 13.1712 12.0825 15.5984 15.0007 15.5984Z" fill="#F4C23F"/>
<path d="M20.2707 9.82403C20.0946 6.9986 17.807 4.76419 15.0117 4.75781C15.1899 7.58324 17.4755 9.81765 20.2707 9.82403Z" fill="#FAD564"/>
<path d="M14.6681 15.0858C14.4621 15.0858 14.2644 15.0018 14.1187 14.8522C13.973 14.7027 13.8911 14.5 13.8911 14.2885V13.3254H12.4489C12.2495 13.3149 12.0617 13.2262 11.9241 13.0776C11.7866 12.9291 11.71 12.732 11.71 12.5271C11.71 12.3223 11.7866 12.1252 11.9241 11.9767C12.0617 11.8281 12.2495 11.7394 12.4489 11.7288H15.7083C15.815 11.7288 15.9172 11.6854 15.9926 11.608C16.068 11.5307 16.1103 11.4258 16.1103 11.3164C16.1103 11.207 16.068 11.1021 15.9926 11.0248C15.9172 10.9474 15.815 10.9039 15.7083 10.9039H13.6279C13.1092 10.9039 12.6116 10.6925 12.2448 10.3161C11.878 9.93976 11.6719 9.42929 11.6719 8.89702C11.6719 8.36475 11.878 7.85428 12.2448 7.47791C12.6116 7.10154 13.1092 6.89009 13.6279 6.89009H13.8911V6.2523C13.9014 6.0477 13.9879 5.85497 14.1327 5.71388C14.2774 5.5728 14.4695 5.49414 14.6692 5.49414C14.8689 5.49414 15.0609 5.5728 15.2057 5.71388C15.3505 5.85497 15.437 6.0477 15.4473 6.2523V6.89009H16.8894C17.0955 6.89009 17.2932 6.97409 17.4389 7.1236C17.5846 7.27311 17.6665 7.4759 17.6665 7.68734C17.6665 7.89878 17.5846 8.10156 17.4389 8.25107C17.2932 8.40059 17.0955 8.48458 16.8894 8.48458H13.6279C13.5729 8.48052 13.5176 8.48814 13.4655 8.50697C13.4134 8.5258 13.3657 8.55544 13.3252 8.59404C13.2848 8.63264 13.2526 8.67936 13.2305 8.73131C13.2085 8.78325 13.1971 8.8393 13.1971 8.89596C13.1971 8.95261 13.2085 9.00866 13.2305 9.06061C13.2526 9.11255 13.2848 9.15928 13.3252 9.19788C13.3657 9.23648 13.4134 9.26612 13.4655 9.28495C13.5176 9.30378 13.5729 9.3114 13.6279 9.30734H15.7083C16.2277 9.30734 16.7257 9.519 17.093 9.89577C17.4602 10.2725 17.6665 10.7836 17.6665 11.3164C17.6665 11.8492 17.4602 12.3602 17.093 12.737C16.7257 13.1138 16.2277 13.3254 15.7083 13.3254H15.4473V14.2885C15.4467 14.5001 15.3644 14.7029 15.2183 14.8524C15.0723 15.0018 14.8744 15.0858 14.6681 15.0858Z" fill="#F4A93F"/>
<path d="M15.9725 9.36211H13.8921C13.7476 9.36211 13.609 9.3032 13.5067 9.19834C13.4045 9.09349 13.3471 8.95127 13.3471 8.80298C13.3471 8.65469 13.4045 8.51247 13.5067 8.40761C13.609 8.30275 13.7476 8.24384 13.8921 8.24384H17.1536C17.3152 8.23435 17.4672 8.16179 17.5783 8.04103C17.6895 7.92027 17.7514 7.76046 17.7514 7.59436C17.7514 7.42826 17.6895 7.26845 17.5783 7.14769C17.4672 7.02692 17.3152 6.95436 17.1536 6.94487H15.5664V6.16038C15.5713 6.07196 15.5586 5.98344 15.529 5.90025C15.4994 5.81705 15.4536 5.74092 15.3943 5.67653C15.3351 5.61215 15.2636 5.56085 15.1843 5.5258C15.1051 5.49074 15.0197 5.47266 14.9333 5.47266C14.847 5.47266 14.7616 5.49074 14.6823 5.5258C14.6031 5.56085 14.5316 5.61215 14.4723 5.67653C14.4131 5.74092 14.3673 5.81705 14.3377 5.90025C14.3081 5.98344 14.2954 6.07196 14.3003 6.16038V6.94487H13.8921C13.4221 6.96118 12.9767 7.1642 12.6498 7.51108C12.323 7.85796 12.1403 8.32156 12.1403 8.80404C12.1403 9.28652 12.323 9.75012 12.6498 10.097C12.9767 10.4439 13.4221 10.6469 13.8921 10.6632H15.9725C16.1115 10.672 16.242 10.7348 16.3374 10.8389C16.4328 10.943 16.4859 11.0805 16.4859 11.2234C16.4859 11.3663 16.4328 11.5038 16.3374 11.6079C16.242 11.712 16.1115 11.7748 15.9725 11.7836H12.7131C12.5514 11.7931 12.3995 11.8657 12.2883 11.9864C12.1772 12.1072 12.1152 12.267 12.1152 12.4331C12.1152 12.5992 12.1772 12.759 12.2883 12.8798C12.3995 13.0005 12.5514 13.0731 12.7131 13.0826H14.3003V14.1945C14.2954 14.2829 14.3081 14.3714 14.3377 14.4546C14.3673 14.5378 14.4131 14.6139 14.4723 14.6783C14.5316 14.7427 14.6031 14.794 14.6823 14.8291C14.7616 14.8641 14.847 14.8822 14.9333 14.8822C15.0197 14.8822 15.1051 14.8641 15.1843 14.8291C15.2636 14.794 15.3351 14.7427 15.3943 14.6783C15.4536 14.6139 15.4994 14.5378 15.529 14.4546C15.5586 14.3714 15.5713 14.2829 15.5664 14.1945V13.0826H15.9725C16.4534 13.0826 16.9145 12.8866 17.2545 12.5377C17.5946 12.1889 17.7856 11.7157 17.7856 11.2223C17.7856 10.729 17.5946 10.2558 17.2545 9.90696C16.9145 9.5581 16.4534 9.36211 15.9725 9.36211Z" fill="#CF6B00"/>
</svg>
