<svg width="29" height="30" viewBox="0 0 29 30" fill="none" xmlns="http://www.w3.org/2000/svg">
<path fill-rule="evenodd" clip-rule="evenodd" d="M27.8554 14.7001L26.6325 13.0185C28.1918 10.0528 29.2313 5.77239 24.3394 6.23101C24.1559 4.67171 22.933 1.8283 21.4042 1.15566C19.5698 0.360727 17.8882 1.8283 16.5735 2.8984C15.962 2.16462 14.6473 0.72762 13.6078 0.635897C11.4676 -1.32086 9.38851 1.706 8.563 3.41816C3.7934 2.28691 1.62262 5.1609 3.48766 9.65534C2.08124 10.1751 -0.60931 11.3981 0.124475 13.3243C0.185624 13.63 0.277347 13.9358 0.430219 14.2109C0.766537 14.9447 1.31688 15.5562 2.02009 15.9842C2.53985 16.504 3.12076 17.0238 3.64053 17.4518C3.51823 17.9104 3.21249 18.4302 3.18191 18.9499C2.78445 20.0201 2.41755 21.0902 2.02009 22.1603L6.88141 22.4354C7.03428 22.5883 7.15658 22.7412 7.34003 22.894C7.21773 24.4228 5.68901 27.7554 8.22669 28.1223C8.99104 28.2446 9.35794 27.8471 9.90828 27.4191C10.3975 27.0216 10.9172 26.6547 11.4676 26.3489C11.9873 26.0432 12.5377 25.8292 13.088 25.6763L16.8487 28.642C17.3073 28.0917 17.7659 27.5719 18.2245 27.0216C18.8666 26.5324 19.2946 25.8292 19.4475 25.0343C19.4475 25.0343 19.4781 25.0343 19.4781 25.0037C20.7928 25.0954 22.3215 26.2878 23.575 25.8598C23.8808 25.768 24.1254 25.5846 24.3394 25.3706C25.3789 24.3616 25.4095 22.3437 24.584 20.2646C25.9292 19.9589 27.1522 19.3474 28.1918 18.4608C28.7421 17.9716 28.895 17.6964 28.9561 17.3907C29.0173 17.1766 29.2007 16.5346 27.8554 14.7001Z" fill="#00897B"/>
<path d="M26.9692 14.6989C26.5717 14.1792 26.2354 13.6594 25.899 13.1702C26.9692 11.7638 27.7029 10.1128 28.0393 8.37005C28.0698 8.12546 27.9475 7.91144 27.7029 7.85029C26.7551 7.63627 25.8073 7.42225 24.8289 7.2388C24.0952 7.08593 23.392 6.93305 22.6887 6.81076C22.7193 6.44386 22.7499 6.01582 22.7499 5.58778C22.7499 5.15974 22.7193 4.7317 22.6887 4.27308C22.597 3.26413 22.383 2.25517 22.0773 1.24622C22.0161 1.00162 21.7715 0.879327 21.5269 0.971051C21.5269 0.971051 21.5269 0.971051 21.4963 0.971051C20.4874 1.33794 19.4784 1.82713 18.5612 2.37747C17.8274 2.80551 17.1242 3.2947 16.4821 3.81447C15.993 3.32528 15.4732 2.86666 14.8923 2.3469C14.0668 1.64369 13.2413 1.00163 12.4769 0.420712C12.2935 0.26784 12.0183 0.328989 11.8654 0.512435C11.8654 0.512435 11.8654 0.512435 11.8654 0.543009C11.2845 1.36852 10.7647 2.25517 10.2144 3.14183C9.87807 3.72274 9.54176 4.27308 9.20544 4.854C8.47165 4.76227 7.70729 4.67055 6.88179 4.6094C5.90341 4.54825 5.01675 4.51768 4.16067 4.51768H4.06894C3.82435 4.51768 3.6409 4.70112 3.6409 4.94572C3.6409 4.97629 3.6409 4.97629 3.6409 5.00687C3.7632 5.95467 3.94665 6.96363 4.19124 8.06431C4.37469 8.82867 4.55813 9.56245 4.77215 10.2657C4.16067 10.6326 3.57975 10.9994 2.96827 11.3969C2.11218 11.9167 1.31725 12.467 0.491741 12.9868C0.27772 13.1091 0.247146 13.3842 0.369443 13.5983C0.369443 13.5983 0.369443 13.6288 0.400018 13.6288C0.980931 14.3932 1.59242 15.127 2.26505 15.7996C2.84597 16.4111 3.42688 16.9615 3.97722 17.4506C3.73263 18.1233 3.42688 18.8265 3.09056 19.5297C2.66252 20.4775 2.20391 21.3336 1.77586 22.1285C1.65357 22.3425 1.74529 22.6177 1.92874 22.74C1.98989 22.7706 2.08161 22.8012 2.17333 22.8012C2.47908 22.8012 2.81539 22.7706 3.15171 22.7706C3.70205 22.7706 4.28296 22.8012 4.89445 22.8317C5.62824 22.8929 6.30087 22.9846 6.91236 23.0763C7.03466 23.8101 7.15695 24.5745 7.24868 25.3694C7.37098 26.4089 7.4627 27.3873 7.49327 28.3045C7.49327 28.5491 7.70729 28.7326 7.95189 28.702C8.01304 28.702 8.07419 28.6714 8.13534 28.6409C8.99142 28.1822 9.87808 27.6931 10.7953 27.1427C11.5902 26.6841 12.324 26.2255 13.0578 25.7669C13.4859 26.1032 13.9445 26.4395 14.4031 26.837C15.2592 27.5402 16.0235 28.274 16.7267 28.9466C16.9102 29.1301 17.1854 29.1301 17.3382 28.9466L17.3688 28.916C18.3778 27.7542 19.3561 26.5618 20.3651 25.4L25.0735 26.2255C25.3181 26.2561 25.5322 26.1032 25.5933 25.8586C25.5933 25.7974 25.5933 25.7363 25.5933 25.6751C25.3793 24.6662 25.2264 23.6572 25.1347 22.6483C25.1041 22.0674 25.0735 21.517 25.0735 20.9973C25.0735 20.875 25.0735 20.7832 25.0735 20.6609C25.6239 20.2635 26.2048 19.866 26.7857 19.3768C27.5501 18.7959 28.2227 18.1844 28.8342 17.6341C29.0176 17.4812 29.0176 17.206 28.8648 17.0226C28.2533 16.3194 27.6112 15.555 26.9692 14.6989ZM26.2354 18.7042C25.5933 19.1934 24.9818 19.652 24.3703 20.08C24.248 20.1718 24.1869 20.2941 24.1869 20.4164C24.1869 20.5998 24.1869 20.7832 24.1869 20.9973C24.1869 21.5476 24.2175 22.0979 24.248 22.7094C24.3092 23.5655 24.4315 24.391 24.5844 25.2471L20.2428 24.4827C20.0899 24.4522 19.937 24.5133 19.8453 24.6356C18.8975 25.7363 17.9497 26.8675 16.9713 27.9682C16.3598 27.3567 15.6872 26.7453 14.9534 26.1338C14.4031 25.6751 13.8527 25.2471 13.333 24.8496C13.1801 24.7273 12.9967 24.7273 12.8438 24.8191C12.0489 25.3388 11.2233 25.828 10.3367 26.3478C9.63348 26.7453 8.96084 27.1427 8.28821 27.5096C8.22706 26.7758 8.16591 26.0115 8.07419 25.186C7.95189 24.2687 7.82959 23.3821 7.70729 22.5566C7.67672 22.3731 7.52385 22.2202 7.3404 22.1897C6.54547 22.0368 5.71996 21.9451 4.92503 21.8839C4.28296 21.8228 3.67148 21.8228 3.09056 21.8228C2.99884 21.8228 2.93769 21.8228 2.84597 21.8228C3.18229 21.2113 3.5186 20.5387 3.82435 19.8354C4.22182 19.0099 4.55813 18.1844 4.8333 17.4201C4.89445 17.2366 4.8333 17.0532 4.711 16.9309C4.06894 16.35 3.42688 15.7385 2.84597 15.127C2.26505 14.5155 1.77586 13.9346 1.31725 13.3842C1.98989 12.9562 2.66252 12.4976 3.36573 12.0695C4.06894 11.6415 4.77215 11.2135 5.47536 10.7854C5.65881 10.6937 5.71996 10.4797 5.65881 10.2962C5.41422 9.53188 5.20019 8.70637 5.01675 7.85029C4.8333 6.9942 4.68043 6.1687 4.55813 5.37376C5.26134 5.37376 6.0257 5.40434 6.82064 5.46548C7.73787 5.52663 8.59395 5.64893 9.38888 5.74065C9.57233 5.77123 9.75578 5.67951 9.8475 5.52663C10.2144 4.88457 10.5813 4.24251 10.9788 3.56987C11.4374 2.83609 11.8654 2.1023 12.324 1.39909C12.9661 1.88828 13.6387 2.40805 14.3114 2.98896C14.984 3.56987 15.5955 4.12021 16.1458 4.67055C16.2987 4.82342 16.5739 4.854 16.7267 4.70112C18.1026 3.5393 19.6924 2.59149 21.374 1.91886C21.5881 2.71379 21.7409 3.50872 21.8021 4.30366C21.8327 4.7317 21.8632 5.15974 21.8632 5.55721C21.8632 6.07697 21.8327 6.59674 21.7715 7.08593C21.7409 7.29995 21.8938 7.51397 22.1384 7.57512C22.9639 7.72799 23.82 7.91143 24.6761 8.06431C25.5016 8.24775 26.2965 8.40063 27.0914 8.58407C26.7246 10.1434 26.0213 11.5804 25.0124 12.8339C24.8901 12.9868 24.8901 13.2008 24.9818 13.3537C25.3793 13.9346 25.8073 14.5461 26.2659 15.1881C26.8163 15.9219 27.3972 16.6251 27.9475 17.2366C27.3972 17.7564 26.8469 18.215 26.2354 18.7042Z" fill="white" fill-opacity="0.2"/>
</svg>
