<svg width="22" height="23" viewBox="0 0 22 23" fill="none" xmlns="http://www.w3.org/2000/svg">
<path d="M17.8761 15.1127H18.9174C19.4698 15.1127 19.9995 14.8961 20.39 14.5105C20.7806 14.1249 21 13.6019 21 13.0565V3.80366C21 3.25832 20.7806 2.73532 20.39 2.34971C19.9995 1.9641 19.4698 1.74747 18.9174 1.74747H9.54578C8.99344 1.74747 8.46373 1.9641 8.07317 2.34971C7.68261 2.73532 7.46319 3.25832 7.46319 3.80366V4.83175M12.4542 8.34182H3.08259C1.93241 8.34182 1 9.26241 1 10.398V19.6509C1 20.7865 1.93241 21.7071 3.08259 21.7071H12.4542C13.6044 21.7071 14.5368 20.7865 14.5368 19.6509V10.398C14.5368 9.26241 13.6044 8.34182 12.4542 8.34182Z" stroke="white" stroke-width="2" stroke-linecap="round" stroke-linejoin="round"/>
</svg>
