<svg width="30" height="26" viewBox="0 0 30 26" fill="none" xmlns="http://www.w3.org/2000/svg">
<path d="M15.3292 3.2169L13.3496 0.729451C13.168 0.50195 12.9376 0.318247 12.6754 0.191969C12.4131 0.0656903 12.1258 7.82319e-05 11.8347 0H1.93659C1.42298 0 0.930397 0.204033 0.567215 0.567215C0.204033 0.930397 0 1.42298 0 1.93659V23.407C0 23.9206 0.204033 24.4132 0.567215 24.7764C0.930397 25.1395 1.42298 25.3436 1.93659 25.3436H28.0634C28.577 25.3436 29.0696 25.1395 29.4328 24.7764C29.796 24.4132 30 23.9206 30 23.407V6.84694C30 5.77751 29.404 4.1271 28.0634 3.94635H16.8441C16.553 3.94627 16.2657 3.88066 16.0035 3.75438C15.7412 3.6281 15.5108 3.4444 15.3292 3.2169Z" fill="#67BAEB"/>
<path d="M5.5817 22.4064C5.11924 22.4064 4.6757 22.2228 4.34849 21.896C4.02129 21.5692 3.83718 21.1259 3.83661 20.6635V0H1.93659C1.42298 0 0.930397 0.204033 0.567215 0.567215C0.204033 0.930397 0 1.42298 0 1.93659V23.407C0 23.9206 0.204033 24.4132 0.567215 24.7764C0.930397 25.1395 1.42298 25.3436 1.93659 25.3436H28.0634C28.577 25.3436 29.0696 25.1395 29.4328 24.7764C29.796 24.4132 30 23.9206 30 23.407V22.4064H5.5817Z" fill="#46A1F8"/>
<path d="M27.1452 23.0097H24.0166C23.8568 23.0097 23.7035 22.9462 23.5905 22.8332C23.4775 22.7202 23.4141 22.567 23.4141 22.4072C23.4141 22.2474 23.4775 22.0941 23.5905 21.9812C23.7035 21.8682 23.8568 21.8047 24.0166 21.8047H27.1452C27.305 21.8047 27.4583 21.8682 27.5713 21.9812C27.6843 22.0941 27.7477 22.2474 27.7477 22.4072C27.7477 22.567 27.6843 22.7202 27.5713 22.8332C27.4583 22.9462 27.305 23.0097 27.1452 23.0097Z" fill="white"/>
<path d="M29.9993 7.98499C29.9993 6.9297 29.1438 6.07422 28.0885 6.07422C27.0332 6.07422 26.1777 6.9297 26.1777 7.98499V12.1013C26.1777 13.1566 27.0332 14.0121 28.0885 14.0121C29.1438 14.0121 29.9993 13.1566 29.9993 12.1013V7.98499Z" fill="#83D0FB"/>
<path d="M10.5759 0H7.58493C6.69126 0 5.9668 0.724077 5.9668 1.61727C5.9668 2.51047 6.69126 3.23454 7.58493 3.23454H10.5759C11.4696 3.23454 12.194 2.51047 12.194 1.61727C12.194 0.724077 11.4696 0 10.5759 0Z" fill="#83D0FB"/>
<path d="M24.3104 3.94727H20.8719C20.4583 3.94727 20.123 4.28233 20.123 4.69565C20.123 5.10897 20.4583 5.44404 20.8719 5.44404H24.3104C24.724 5.44404 25.0592 5.10897 25.0592 4.69565C25.0592 4.28233 24.724 3.94727 24.3104 3.94727Z" fill="#83D0FB"/>
<path d="M18.2018 21.6617V10.533H20.0818C20.5336 10.533 20.7442 9.97202 20.4034 9.67527L15.3224 5.22033C15.2326 5.14247 15.1177 5.09961 14.9989 5.09961C14.88 5.09961 14.7651 5.14247 14.6753 5.22033L9.59435 9.67527C9.25358 9.97202 9.46417 10.533 9.91598 10.533H11.796V21.6617C11.796 21.8528 11.8718 22.0361 12.0067 22.1714C12.1416 22.3067 12.3247 22.3829 12.5158 22.3835H17.4819C17.673 22.3829 17.8561 22.3067 17.991 22.1714C18.126 22.0361 18.2018 21.8528 18.2018 21.6617Z" fill="#F4C23F"/>
<path d="M18.2018 19.6263L14.8553 19.6301C14.6334 19.6301 14.4206 19.542 14.2637 19.3851C14.1068 19.2282 14.0187 19.0154 14.0187 18.7935V8.92256C14.0187 8.701 13.9308 8.48849 13.7743 8.33165C13.6178 8.17481 13.4055 8.08644 13.184 8.08594H11.4054L9.59435 9.67494C9.25358 9.97168 9.46417 10.5326 9.91598 10.5326H11.796V21.6614C11.796 21.8525 11.8718 22.0357 12.0067 22.171C12.1416 22.3063 12.3247 22.3826 12.5158 22.3831H17.4819C17.673 22.3826 17.8561 22.3063 17.991 22.171C18.126 22.0357 18.2018 21.8525 18.2018 21.6614V19.6263Z" fill="#F4A93F"/>
<path d="M18.2019 12.8256C18.2019 12.2747 17.7558 11.8281 17.2055 11.8281C16.6551 11.8281 16.209 12.2747 16.209 12.8256V16.7609C16.209 17.3118 16.6551 17.7584 17.2055 17.7584C17.7558 17.7584 18.2019 17.3118 18.2019 16.7609V12.8256Z" fill="#FAD564"/>
<path d="M18.6006 8.19069L17.7072 7.39472C17.4601 7.17456 17.0815 7.19621 16.8615 7.44307C16.6416 7.68993 16.6636 8.06852 16.9107 8.28867L17.8041 9.08464C18.0512 9.3048 18.4298 9.28315 18.6497 9.03629C18.8697 8.78943 18.8476 8.41084 18.6006 8.19069Z" fill="#FAD564"/>
<path d="M15.5913 21.6781C15.5913 21.4917 15.5173 21.313 15.3855 21.1813C15.2538 21.0495 15.0751 20.9755 14.8887 20.9755H13.4012V19.4975C13.4007 19.2851 13.3159 19.0816 13.1656 18.9315C13.0152 18.7815 12.8114 18.6973 12.599 18.6973C12.3866 18.6973 12.1829 18.7815 12.0325 18.9315C11.8821 19.0816 11.7974 19.2851 11.7969 19.4975V21.6608C11.7969 21.8519 11.8727 22.0352 12.0076 22.1705C12.1425 22.3058 12.3256 22.3821 12.5167 22.3826H14.8887C14.9812 22.3826 15.0727 22.3644 15.158 22.3289C15.2434 22.2935 15.321 22.2416 15.3862 22.1761C15.4515 22.1107 15.5032 22.033 15.5384 21.9475C15.5736 21.8621 15.5916 21.7705 15.5913 21.6781Z" fill="#F8881B"/>
<path d="M18.2012 10.5321H20.0812C20.5177 10.5321 20.7302 10.0075 20.4334 9.70312H18.54C18.4955 9.70313 18.4515 9.71189 18.4104 9.72892C18.3692 9.74595 18.3319 9.77091 18.3004 9.80237C18.269 9.83384 18.244 9.8712 18.227 9.91231C18.2099 9.95342 18.2012 9.99748 18.2012 10.042V10.5321Z" fill="#F4A93F"/>
<path d="M11.147 9.29883H10.0232L9.59435 9.67598C9.25358 9.97272 9.46417 10.5337 9.91598 10.5337H11.796V9.94783C11.796 9.7757 11.7276 9.61063 11.6059 9.48892C11.4842 9.3672 11.3191 9.29883 11.147 9.29883Z" fill="#F8881B"/>
</svg>
