<svg width="30" height="30" viewBox="0 0 30 30" fill="none" xmlns="http://www.w3.org/2000/svg">
<path d="M13.8859 26.8651C21.0048 26.8651 26.7757 21.0737 26.7757 13.9296C26.7757 6.78556 21.0048 0.994141 13.8859 0.994141C6.76707 0.994141 0.996094 6.78556 0.996094 13.9296C0.996094 21.0737 6.76707 26.8651 13.8859 26.8651Z" fill="url(#paint0_linear_1399_1384)"/>
<path d="M0.163403 15.9214C0.120698 15.6286 0.0566406 15.3286 0.0566406 15C0.0566406 15.3357 0.120698 15.6286 0.163403 15.9214Z" fill="url(#paint1_linear_1399_1384)"/>
<path d="M18.691 22.6198C17.7373 25.7126 16.1572 27.8554 13.8867 27.8554C17.2196 27.8489 20.439 26.6396 22.9571 24.4483C25.4751 22.2571 27.1239 19.23 27.6022 15.9199H23.595C23.3042 17.3243 22.7158 18.6495 21.8697 19.8055C21.0235 20.9615 19.9395 21.9213 18.691 22.6198Z" fill="url(#paint2_linear_1399_1384)"/>
<path d="M0.0566406 12.8584C0.0566406 12.5584 0.120698 12.2655 0.156286 11.9727C0.120698 12.2298 0.0566406 12.5226 0.0566406 12.8584Z" fill="url(#paint3_linear_1399_1384)"/>
<path d="M27.709 15C27.709 15.3 27.645 15.5928 27.6094 15.8857C27.645 15.6286 27.6805 15.3357 27.709 15Z" fill="url(#paint4_linear_1399_1384)"/>
<path d="M9.0752 5.23562C10.0218 2.14282 11.609 0 13.8866 0C10.5525 0.00480798 7.33137 1.21333 4.81184 3.40475C2.2923 5.59617 0.642563 8.62418 0.164062 11.9355H4.17123C4.46199 10.5311 5.05042 9.20595 5.89657 8.04993C6.74272 6.8939 7.82679 5.93409 9.0752 5.23562Z" fill="url(#paint5_linear_1399_1384)"/>
<path d="M9.0752 22.6198C7.82679 21.9213 6.74272 20.9615 5.89657 19.8055C5.05042 18.6495 4.46199 17.3243 4.17123 15.9199H0.164062C0.642563 19.2312 2.2923 22.2593 4.81184 24.4507C7.33137 26.6421 10.5525 27.8506 13.8866 27.8554C11.609 27.8554 10.0218 25.7126 9.0752 22.6198Z" fill="url(#paint6_linear_1399_1384)"/>
<path d="M18.691 5.23562C19.9395 5.93409 21.0235 6.8939 21.8697 8.04993C22.7158 9.20595 23.3042 10.5311 23.595 11.9355H27.6022C27.1239 8.6254 25.4751 5.59835 22.9571 3.40709C20.439 1.21582 17.2196 0.00652101 13.8867 0C16.1572 0 17.7373 2.14282 18.691 5.23562Z" fill="url(#paint7_linear_1399_1384)"/>
<path d="M11.9586 11.9357C12.2077 7.65007 13.2469 4.97155 13.8874 4.15728C14.528 4.97155 15.5601 7.6215 15.8163 11.9357H19.7879C19.6965 9.66641 19.3308 7.41665 18.6989 5.23583C17.2292 4.41263 15.5741 3.98047 13.891 3.98047C12.2079 3.98047 10.5528 4.41263 9.08312 5.23583C8.45118 7.41665 8.08551 9.66641 7.99414 11.9357H11.9586Z" fill="url(#paint8_linear_1399_1384)"/>
<path d="M15.8104 15.9199C15.5613 20.2056 14.5222 22.8841 13.8816 23.6984C13.241 22.8841 12.209 20.2341 11.9527 15.9199H7.98828C8.07965 18.1892 8.44532 20.439 9.07726 22.6198C10.5469 23.443 12.202 23.8752 13.8851 23.8752C15.5682 23.8752 17.2234 23.443 18.693 22.6198C19.325 20.439 19.6906 18.1892 19.782 15.9199H15.8104Z" fill="url(#paint9_linear_1399_1384)"/>
<path d="M9.07422 5.23562C10.5439 4.41242 12.199 3.98026 13.8821 3.98026C15.5652 3.98026 17.2203 4.41242 18.69 5.23562C17.7362 2.14282 16.1562 0 13.8857 0C11.6152 0 10.0208 2.14282 9.07422 5.23562Z" fill="url(#paint10_linear_1399_1384)"/>
<path d="M9.07422 5.23562C10.5439 4.41242 12.199 3.98026 13.8821 3.98026C15.5652 3.98026 17.2203 4.41242 18.69 5.23562C17.7362 2.14282 16.1562 0 13.8857 0C11.6152 0 10.0208 2.14282 9.07422 5.23562Z" fill="url(#paint11_linear_1399_1384)"/>
<path d="M18.69 22.6211C17.2203 23.4443 15.5652 23.8765 13.8821 23.8765C12.199 23.8765 10.5439 23.4443 9.07422 22.6211C10.0208 25.7139 11.6081 27.8567 13.8857 27.8567C16.1633 27.8567 17.7362 25.7139 18.69 22.6211Z" fill="url(#paint12_linear_1399_1384)"/>
<path d="M18.69 22.6211C17.2203 23.4443 15.5652 23.8765 13.8821 23.8765C12.199 23.8765 10.5439 23.4443 9.07422 22.6211C10.0208 25.7139 11.6081 27.8567 13.8857 27.8567C16.1633 27.8567 17.7362 25.7139 18.69 22.6211Z" fill="url(#paint13_linear_1399_1384)"/>
<path d="M27.707 12.8574C27.707 13.2217 27.764 13.5717 27.764 13.9645C27.764 13.5717 27.7355 13.186 27.707 12.8574Z" fill="url(#paint14_linear_1399_1384)"/>
<path d="M0.0569401 14.9997C0.0569401 14.6354 0 14.2854 0 13.8926C0.00711752 14.2854 0.0569401 14.6711 0.0569401 14.9997Z" fill="url(#paint15_linear_1399_1384)"/>
<path d="M0.0078125 13.9274C0.0078125 13.556 0.00781245 13.2132 0.0647526 12.8203C0.0576351 13.1846 0.0078125 13.5703 0.0078125 13.9274Z" fill="url(#paint16_linear_1399_1384)"/>
<path d="M27.764 13.9277C27.764 14.2992 27.764 14.642 27.707 15.0349C27.7355 14.6706 27.764 14.2849 27.764 13.9277Z" fill="url(#paint17_linear_1399_1384)"/>
<path d="M19.8291 13.9271C19.8291 14.5914 19.8291 15.2556 19.7793 15.9199H23.5943C23.8598 14.6071 23.8598 13.2542 23.5943 11.9414H19.7793C19.8149 12.5985 19.8291 13.2628 19.8291 13.9271Z" fill="url(#paint18_linear_1399_1384)"/>
<path d="M7.93502 13.9284C7.93502 13.2641 7.93502 12.5998 7.98484 11.9355H4.16985C3.90432 13.2483 3.90432 14.6013 4.16985 15.9141H7.98484C7.94926 15.2569 7.93502 14.5926 7.93502 13.9284Z" fill="url(#paint19_linear_1399_1384)"/>
<path d="M15.8079 11.9355H11.9573C11.9217 12.5641 11.9004 13.2284 11.9004 13.9284C11.9004 14.6284 11.9004 15.2926 11.9573 15.9212H15.8079C15.8435 15.2926 15.8648 14.6284 15.8648 13.9284C15.8648 13.2284 15.8435 12.5641 15.8079 11.9355Z" fill="url(#paint20_linear_1399_1384)"/>
<path d="M27.7096 15.0003C27.7096 14.6361 27.7666 14.2861 27.7666 13.8932C27.7666 13.5004 27.7666 13.1789 27.7096 12.7861C27.6527 12.3932 27.6456 12.1932 27.61 11.9004H23.5957C23.8612 13.2132 23.8612 14.5661 23.5957 15.8789H27.6029C27.6456 15.6289 27.6812 15.3289 27.7096 15.0003Z" fill="url(#paint21_linear_1399_1384)"/>
<path d="M27.7096 15.0003C27.7096 14.6361 27.7666 14.2861 27.7666 13.8932C27.7666 13.5004 27.7666 13.1789 27.7096 12.7861C27.6527 12.3932 27.6456 12.1932 27.61 11.9004H23.5957C23.8612 13.2132 23.8612 14.5661 23.5957 15.8789H27.6029C27.6456 15.6289 27.6812 15.3289 27.7096 15.0003Z" fill="url(#paint22_linear_1399_1384)"/>
<path d="M3.97158 13.9284C3.97109 13.2591 4.03786 12.5914 4.17087 11.9355H0.163703C0.120998 12.2284 0.0569401 12.5284 0.0569401 12.857C0.0569401 13.1855 0 13.5712 0 13.9641C0 14.3569 0.0569401 14.6712 0.0569401 14.9998C0.0569401 15.3283 0.120998 15.5926 0.156585 15.8855H4.17087C4.04022 15.2413 3.97346 14.5857 3.97158 13.9284Z" fill="url(#paint23_linear_1399_1384)"/>
<path d="M3.97158 13.9284C3.97109 13.2591 4.03786 12.5914 4.17087 11.9355H0.163703C0.120998 12.2284 0.0569401 12.5284 0.0569401 12.857C0.0569401 13.1855 0 13.5712 0 13.9641C0 14.3569 0.0569401 14.6712 0.0569401 14.9998C0.0569401 15.3283 0.120998 15.5926 0.156585 15.8855H4.17087C4.04022 15.2413 3.97346 14.5857 3.97158 13.9284Z" fill="url(#paint24_linear_1399_1384)"/>
<path d="M11.9589 11.9355H7.98732C7.98732 12.5927 7.9375 13.257 7.9375 13.9284C7.9375 14.5998 7.9375 15.2569 7.98732 15.9212H11.9589C11.9233 15.2926 11.902 14.6284 11.902 13.9284C11.902 13.2284 11.9233 12.5641 11.9589 11.9355Z" fill="url(#paint25_linear_1399_1384)"/>
<path d="M11.9589 11.9355H7.98732C7.98732 12.5927 7.9375 13.257 7.9375 13.9284C7.9375 14.5998 7.9375 15.2569 7.98732 15.9212H11.9589C11.9233 15.2926 11.902 14.6284 11.902 13.9284C11.902 13.2284 11.9233 12.5641 11.9589 11.9355Z" fill="url(#paint26_linear_1399_1384)"/>
<path d="M15.8636 13.9284C15.8636 14.6426 15.8636 15.2926 15.8066 15.9212H19.7782C19.7782 15.2641 19.828 14.5998 19.828 13.9284C19.828 13.257 19.828 12.5998 19.7782 11.9355H15.8066C15.8422 12.5641 15.8636 13.2284 15.8636 13.9284Z" fill="url(#paint27_linear_1399_1384)"/>
<path d="M15.8636 13.9284C15.8636 14.6426 15.8636 15.2926 15.8066 15.9212H19.7782C19.7782 15.2641 19.828 14.5998 19.828 13.9284C19.828 13.257 19.828 12.5998 19.7782 11.9355H15.8066C15.8422 12.5641 15.8636 13.2284 15.8636 13.9284Z" fill="url(#paint28_linear_1399_1384)"/>
<path d="M28.9321 25.7143H18.2559V18.2145C18.2559 17.511 18.3939 16.8144 18.6622 16.1644C18.9305 15.5145 19.3237 14.9239 19.8194 14.4265C20.3151 13.929 20.9035 13.5344 21.5512 13.2652C22.1988 12.996 22.893 12.8574 23.594 12.8574C24.295 12.8574 24.9892 12.996 25.6368 13.2652C26.2845 13.5344 26.8729 13.929 27.3686 14.4265C27.8643 14.9239 28.2575 15.5145 28.5258 16.1644C28.7941 16.8144 28.9321 17.511 28.9321 18.2145V25.7143ZM20.3911 23.5715H26.7969V18.2145C26.7969 17.7924 26.714 17.3744 26.5531 16.9844C26.3921 16.5945 26.1562 16.2401 25.8588 15.9417C25.5614 15.6432 25.2083 15.4064 24.8197 15.2449C24.4311 15.0834 24.0146 15.0002 23.594 15.0002C23.1734 15.0002 22.7569 15.0834 22.3683 15.2449C21.9797 15.4064 21.6266 15.6432 21.3292 15.9417C21.0318 16.2401 20.7959 16.5945 20.6349 16.9844C20.474 17.3744 20.3911 17.7924 20.3911 18.2145V23.5715Z" fill="url(#paint29_linear_1399_1384)"/>
<path d="M28.9321 19.3728C28.7741 19.3178 28.6083 19.2888 28.441 19.2871H26.7969V23.5727H20.3911V19.2871H18.747C18.5797 19.2888 18.4139 19.3178 18.2559 19.3728V25.7156H28.9321V19.3728Z" fill="url(#paint30_linear_1399_1384)"/>
<path d="M28.4423 20.3574H18.7482C17.8873 20.3574 17.1895 21.0578 17.1895 21.9217V28.4359C17.1895 29.2998 17.8873 30.0001 18.7482 30.0001H28.4423C29.3031 30.0001 30.001 29.2998 30.001 28.4359V21.9217C30.001 21.0578 29.3031 20.3574 28.4423 20.3574Z" fill="url(#paint31_linear_1399_1384)"/>
<path d="M18.7455 20.3574C18.42 20.3591 18.1033 20.4635 17.8402 20.6558C17.577 20.848 17.3808 21.1185 17.2793 21.4288H29.9485C29.8466 21.1173 29.6493 20.846 29.3847 20.6537C29.1202 20.4613 28.8019 20.3576 28.4752 20.3574H18.7455Z" fill="url(#paint32_linear_1399_1384)"/>
<path d="M25.1318 25.1129C25.1165 24.7478 24.9726 24.3999 24.7256 24.1314C24.4787 23.8628 24.1448 23.6909 23.7833 23.6463C23.4219 23.6017 23.0564 23.6873 22.752 23.8879C22.4476 24.0884 22.224 24.3909 22.1211 24.7415C22.064 24.9721 22.0613 25.2129 22.1132 25.4448C22.1651 25.6766 22.2701 25.8932 22.42 26.0772C22.5348 26.2262 22.5951 26.4103 22.5908 26.5986V26.8271C22.5908 27.0963 22.6958 27.3547 22.8834 27.547C23.071 27.7393 23.3263 27.8501 23.5944 27.8557C23.8662 27.8557 24.1269 27.7473 24.3191 27.5544C24.5113 27.3616 24.6193 27.0999 24.6193 26.8271V26.5986C24.6171 26.4072 24.6799 26.2208 24.7972 26.07C25.0146 25.7988 25.1326 25.4609 25.1318 25.1129Z" fill="url(#paint33_linear_1399_1384)"/>
<path d="M25.0324 25.6556C24.9012 25.2924 24.639 24.9919 24.2977 24.8134C23.9564 24.6348 23.5608 24.5913 23.189 24.6913C22.9541 24.7564 22.7383 24.8774 22.5598 25.044C22.3814 25.2106 22.2457 25.418 22.1641 25.6484C22.2191 25.8029 22.2984 25.9476 22.3989 26.077C22.5138 26.226 22.5741 26.4101 22.5698 26.5984V26.827C22.5698 27.0998 22.6777 27.3614 22.87 27.5543C23.0622 27.7472 23.3229 27.8555 23.5947 27.8555C23.8665 27.8555 24.1272 27.7472 24.3194 27.5543C24.5116 27.3614 24.6196 27.0998 24.6196 26.827V26.5984C24.6174 26.4071 24.6802 26.2207 24.7975 26.0699C24.8967 25.9448 24.976 25.805 25.0324 25.6556Z" fill="url(#paint34_linear_1399_1384)"/>
<defs>
<linearGradient id="paint0_linear_1399_1384" x1="13.8859" y1="35.3221" x2="13.8859" y2="-17.7698" gradientUnits="userSpaceOnUse">
<stop stop-color="#273A9B"/>
<stop offset="0.56" stop-color="#202F65"/>
<stop offset="1" stop-color="#021E2F"/>
</linearGradient>
<linearGradient id="paint1_linear_1399_1384" x1="0.113581" y1="42.9495" x2="0.113581" y2="-23.2279" gradientUnits="userSpaceOnUse">
<stop stop-color="#27E9DE"/>
<stop offset="0.52" stop-color="#03A4EC"/>
<stop offset="1" stop-color="#2547A8"/>
</linearGradient>
<linearGradient id="paint2_linear_1399_1384" x1="20.7409" y1="40.6766" x2="20.7409" y2="0.134485" gradientUnits="userSpaceOnUse">
<stop stop-color="#27E9DE"/>
<stop offset="0.52" stop-color="#03A4EC"/>
<stop offset="1" stop-color="#2547A8"/>
</linearGradient>
<linearGradient id="paint3_linear_1399_1384" x1="0.113581" y1="42.9507" x2="0.113581" y2="-23.2267" gradientUnits="userSpaceOnUse">
<stop stop-color="#27E9DE"/>
<stop offset="0.52" stop-color="#03A4EC"/>
<stop offset="1" stop-color="#2547A8"/>
</linearGradient>
<linearGradient id="paint4_linear_1399_1384" x1="27.6592" y1="42.9495" x2="27.6592" y2="-23.2279" gradientUnits="userSpaceOnUse">
<stop stop-color="#27E9DE"/>
<stop offset="0.52" stop-color="#03A4EC"/>
<stop offset="1" stop-color="#2547A8"/>
</linearGradient>
<linearGradient id="paint5_linear_1399_1384" x1="7.02535" y1="-15.6997" x2="7.02535" y2="25.9924" gradientUnits="userSpaceOnUse">
<stop stop-color="#27E9DE"/>
<stop offset="0.52" stop-color="#03A4EC"/>
<stop offset="1" stop-color="#2547A8"/>
</linearGradient>
<linearGradient id="paint6_linear_1399_1384" x1="7.02535" y1="40.6766" x2="7.02535" y2="0.134485" gradientUnits="userSpaceOnUse">
<stop stop-color="#27E9DE"/>
<stop offset="0.52" stop-color="#03A4EC"/>
<stop offset="1" stop-color="#2547A8"/>
</linearGradient>
<linearGradient id="paint7_linear_1399_1384" x1="20.7409" y1="-15.6997" x2="20.7409" y2="25.9924" gradientUnits="userSpaceOnUse">
<stop stop-color="#27E9DE"/>
<stop offset="0.52" stop-color="#03A4EC"/>
<stop offset="1" stop-color="#2547A8"/>
</linearGradient>
<linearGradient id="paint8_linear_1399_1384" x1="13.8874" y1="42.9495" x2="13.8874" y2="-23.228" gradientUnits="userSpaceOnUse">
<stop stop-color="#27E9DE"/>
<stop offset="0.52" stop-color="#03A4EC"/>
<stop offset="1" stop-color="#2547A8"/>
</linearGradient>
<linearGradient id="paint9_linear_1399_1384" x1="13.8887" y1="42.948" x2="13.8887" y2="-23.2294" gradientUnits="userSpaceOnUse">
<stop stop-color="#27E9DE"/>
<stop offset="0.52" stop-color="#03A4EC"/>
<stop offset="1" stop-color="#2547A8"/>
</linearGradient>
<linearGradient id="paint10_linear_1399_1384" x1="13.8857" y1="42.9421" x2="13.8857" y2="-23.2282" gradientUnits="userSpaceOnUse">
<stop stop-color="#27E9DE"/>
<stop offset="0.52" stop-color="#03A4EC"/>
<stop offset="1" stop-color="#2547A8"/>
</linearGradient>
<linearGradient id="paint11_linear_1399_1384" x1="13.8857" y1="-10.8284" x2="13.8857" y2="37.6493" gradientUnits="userSpaceOnUse">
<stop stop-color="#27E9DE"/>
<stop offset="0.52" stop-color="#03A4EC"/>
<stop offset="1" stop-color="#2547A8"/>
</linearGradient>
<linearGradient id="paint12_linear_1399_1384" x1="13.8857" y1="42.9422" x2="13.8857" y2="-23.2281" gradientUnits="userSpaceOnUse">
<stop stop-color="#27E9DE"/>
<stop offset="0.52" stop-color="#03A4EC"/>
<stop offset="1" stop-color="#2547A8"/>
</linearGradient>
<linearGradient id="paint13_linear_1399_1384" x1="13.8857" y1="51.3992" x2="13.8857" y2="-1.15707" gradientUnits="userSpaceOnUse">
<stop stop-color="#27E9DE"/>
<stop offset="0.52" stop-color="#03A4EC"/>
<stop offset="1" stop-color="#2547A8"/>
</linearGradient>
<linearGradient id="paint14_linear_1399_1384" x1="27.7355" y1="42.9426" x2="27.7355" y2="-23.2276" gradientUnits="userSpaceOnUse">
<stop stop-color="#27E9DE"/>
<stop offset="0.52" stop-color="#03A4EC"/>
<stop offset="1" stop-color="#2547A8"/>
</linearGradient>
<linearGradient id="paint15_linear_1399_1384" x1="0.0355873" y1="42.9421" x2="0.0355873" y2="-23.2282" gradientUnits="userSpaceOnUse">
<stop stop-color="#27E9DE"/>
<stop offset="0.52" stop-color="#03A4EC"/>
<stop offset="1" stop-color="#2547A8"/>
</linearGradient>
<linearGradient id="paint16_linear_1399_1384" x1="0.0362824" y1="42.9412" x2="0.0362824" y2="-23.229" gradientUnits="userSpaceOnUse">
<stop stop-color="#27E9DE"/>
<stop offset="0.52" stop-color="#03A4EC"/>
<stop offset="1" stop-color="#2547A8"/>
</linearGradient>
<linearGradient id="paint17_linear_1399_1384" x1="27.7355" y1="42.9415" x2="27.7355" y2="-23.2287" gradientUnits="userSpaceOnUse">
<stop stop-color="#27E9DE"/>
<stop offset="0.52" stop-color="#03A4EC"/>
<stop offset="1" stop-color="#2547A8"/>
</linearGradient>
<linearGradient id="paint18_linear_1399_1384" x1="21.7864" y1="28.2697" x2="21.7864" y2="3.9344" gradientUnits="userSpaceOnUse">
<stop stop-color="#27E9DE"/>
<stop offset="0.52" stop-color="#03A4EC"/>
<stop offset="1" stop-color="#2547A8"/>
</linearGradient>
<linearGradient id="paint19_linear_1399_1384" x1="5.9777" y1="28.271" x2="5.9777" y2="3.93568" gradientUnits="userSpaceOnUse">
<stop stop-color="#27E9DE"/>
<stop offset="0.52" stop-color="#03A4EC"/>
<stop offset="1" stop-color="#2547A8"/>
</linearGradient>
<linearGradient id="paint20_linear_1399_1384" x1="13.8862" y1="28.271" x2="13.8862" y2="3.93569" gradientUnits="userSpaceOnUse">
<stop stop-color="#27E9DE"/>
<stop offset="0.52" stop-color="#03A4EC"/>
<stop offset="1" stop-color="#2547A8"/>
</linearGradient>
<linearGradient id="paint21_linear_1399_1384" x1="25.6811" y1="42.9427" x2="25.6811" y2="-23.2276" gradientUnits="userSpaceOnUse">
<stop stop-color="#27E9DE"/>
<stop offset="0.52" stop-color="#03A4EC"/>
<stop offset="1" stop-color="#2547A8"/>
</linearGradient>
<linearGradient id="paint22_linear_1399_1384" x1="25.6811" y1="42.9427" x2="25.6811" y2="-23.2276" gradientUnits="userSpaceOnUse">
<stop stop-color="#27E9DE"/>
<stop offset="0.52" stop-color="#03A4EC"/>
<stop offset="1" stop-color="#2547A8"/>
</linearGradient>
<linearGradient id="paint23_linear_1399_1384" x1="2.08543" y1="42.9422" x2="2.08543" y2="-23.2281" gradientUnits="userSpaceOnUse">
<stop stop-color="#27E9DE"/>
<stop offset="0.52" stop-color="#03A4EC"/>
<stop offset="1" stop-color="#2547A8"/>
</linearGradient>
<linearGradient id="paint24_linear_1399_1384" x1="2.08543" y1="42.9422" x2="2.08543" y2="-23.2281" gradientUnits="userSpaceOnUse">
<stop stop-color="#27E9DE"/>
<stop offset="0.52" stop-color="#03A4EC"/>
<stop offset="1" stop-color="#2547A8"/>
</linearGradient>
<linearGradient id="paint25_linear_1399_1384" x1="9.94464" y1="42.9422" x2="9.94464" y2="-23.2281" gradientUnits="userSpaceOnUse">
<stop stop-color="#27E9DE"/>
<stop offset="0.52" stop-color="#03A4EC"/>
<stop offset="1" stop-color="#2547A8"/>
</linearGradient>
<linearGradient id="paint26_linear_1399_1384" x1="9.94464" y1="42.9422" x2="9.94464" y2="-23.2281" gradientUnits="userSpaceOnUse">
<stop stop-color="#27E9DE"/>
<stop offset="0.52" stop-color="#03A4EC"/>
<stop offset="1" stop-color="#2547A8"/>
</linearGradient>
<linearGradient id="paint27_linear_1399_1384" x1="17.8209" y1="42.9422" x2="17.8209" y2="-23.2281" gradientUnits="userSpaceOnUse">
<stop stop-color="#27E9DE"/>
<stop offset="0.52" stop-color="#03A4EC"/>
<stop offset="1" stop-color="#2547A8"/>
</linearGradient>
<linearGradient id="paint28_linear_1399_1384" x1="17.8209" y1="42.9422" x2="17.8209" y2="-23.2281" gradientUnits="userSpaceOnUse">
<stop stop-color="#27E9DE"/>
<stop offset="0.52" stop-color="#03A4EC"/>
<stop offset="1" stop-color="#2547A8"/>
</linearGradient>
<linearGradient id="paint29_linear_1399_1384" x1="23.594" y1="22.0858" x2="23.594" y2="8.60035" gradientUnits="userSpaceOnUse">
<stop stop-color="white"/>
<stop offset="0.52" stop-color="#CCE2E6"/>
<stop offset="1" stop-color="#8FA1BB"/>
</linearGradient>
<linearGradient id="paint30_linear_1399_1384" x1="23.594" y1="16.7443" x2="23.594" y2="25.5584" gradientUnits="userSpaceOnUse">
<stop stop-color="white"/>
<stop offset="0.52" stop-color="#CCE2E6"/>
<stop offset="1" stop-color="#8FA1BB"/>
</linearGradient>
<linearGradient id="paint31_linear_1399_1384" x1="23.5952" y1="38.0357" x2="23.5952" y2="0.472054" gradientUnits="userSpaceOnUse">
<stop stop-color="#273A9B"/>
<stop offset="0.56" stop-color="#202F65"/>
<stop offset="1" stop-color="#021E2F"/>
</linearGradient>
<linearGradient id="paint32_linear_1399_1384" x1="23.5925" y1="24.1502" x2="23.5925" y2="28.393" gradientUnits="userSpaceOnUse">
<stop stop-color="#273A9B"/>
<stop offset="0.56" stop-color="#202F65"/>
<stop offset="1" stop-color="#021E2F"/>
</linearGradient>
<linearGradient id="paint33_linear_1399_1384" x1="23.5944" y1="32.1628" x2="23.5944" y2="21.4415" gradientUnits="userSpaceOnUse">
<stop stop-color="#F3C57A"/>
<stop offset="0.49" stop-color="#F39369"/>
<stop offset="1" stop-color="#E94867"/>
</linearGradient>
<linearGradient id="paint34_linear_1399_1384" x1="23.6018" y1="27.4984" x2="23.6018" y2="22.5342" gradientUnits="userSpaceOnUse">
<stop stop-color="#F3C57A"/>
<stop offset="0.49" stop-color="#F39369"/>
<stop offset="1" stop-color="#E94867"/>
</linearGradient>
</defs>
</svg>
